ISO-10303-21;
HEADER;
FILE_DESCRIPTION (( 'STEP AP214' ),
    '1' );
FILE_NAME ('EtherWizRiscPC7kBackplate.STEP',
    '2026-10-06T16:59:07',
    ( '' ),
    ( '' ),
    'SwSTEP 2.0',
    'SolidWorks 2026',
    '' );
FILE_SCHEMA (( 'AUTOMOTIVE_DESIGN' ));
ENDSEC;

DATA;
#1 = CARTESIAN_POINT ( 'NONE',  ( 23.55000000000000071, 10.00000000000001599, 1.600000000000000089 ) ) ;
#2 = CIRCLE ( 'NONE', #940, 1.300000000000001599 ) ;
#3 = CARTESIAN_POINT ( 'NONE',  ( -18.80000000000000782, 1.600000000000000089, -4.200000000000000178 ) ) ;
#4 = ORIENTED_EDGE ( 'NONE', *, *, #383, .T. ) ;
#5 = CARTESIAN_POINT ( 'NONE',  ( -22.80000000000000782, 1.600000000000000089, -0.5000000000000000000 ) ) ;
#6 = VECTOR ( 'NONE', #714, 1000.000000000000000 ) ;
#7 = CARTESIAN_POINT ( 'NONE',  ( -14.80000000000000782, 5.599999999999999645, 0.000000000000000000 ) ) ;
#8 = ORIENTED_EDGE ( 'NONE', *, *, #1013, .T. ) ;
#9 = CYLINDRICAL_SURFACE ( 'NONE', #979, 1.250000000000001110 ) ;
#10 = DIRECTION ( 'NONE',  ( 1.927470528863119049E-16, -1.000000000000000000, 0.000000000000000000 ) ) ;
#11 = CARTESIAN_POINT ( 'NONE',  ( -18.80000000000000782, 1.600000000000000089, -5.500000000000001776 ) ) ;
#12 = ORIENTED_EDGE ( 'NONE', *, *, #298, .T. ) ;
#13 = CARTESIAN_POINT ( 'NONE',  ( 14.79999999999999361, 5.599999999999999645, -3.046921236278612963E-15 ) ) ;
#14 = DIRECTION ( 'NONE',  ( 0.000000000000000000, 0.000000000000000000, 1.000000000000000000 ) ) ;
#15 = AXIS2_PLACEMENT_3D ( 'NONE', #955, #203, #138 ) ;
#16 = ORIENTED_EDGE ( 'NONE', *, *, #593, .F. ) ;
#17 = EDGE_CURVE ( 'NONE', #324, #161, #482, .T. ) ;
#18 = FACE_OUTER_BOUND ( 'NONE', #688, .T. ) ;
#19 = PLANE ( 'NONE',  #176 ) ;
#20 = LINE ( 'NONE', #289, #878 ) ;
#21 = VECTOR ( 'NONE', #566, 1000.000000000000000 ) ;
#22 = EDGE_LOOP ( 'NONE', ( #137, #184, #971, #16 ) ) ;
#23 = CARTESIAN_POINT ( 'NONE',  ( 24.80000000000000426, 10.00000000000001599, 1.600000000000000089 ) ) ;
#24 = VECTOR ( 'NONE', #101, 1000.000000000000000 ) ;
#25 = FACE_OUTER_BOUND ( 'NONE', #810, .T. ) ;
#26 = EDGE_CURVE ( 'NONE', #1023, #724, #493, .T. ) ;
#27 = ADVANCED_FACE ( 'NONE', ( #643 ), #391, .F. ) ;
#28 = EDGE_LOOP ( 'NONE', ( #1038, #362 ) ) ;
#29 = ORIENTED_EDGE ( 'NONE', *, *, #182, .T. ) ;
#30 = DIRECTION ( 'NONE',  ( 1.000000000000000000, 0.000000000000000000, -2.478176394252582127E-16 ) ) ;
#31 = DIRECTION ( 'NONE',  ( -0.000000000000000000, -0.000000000000000000, -1.000000000000000000 ) ) ;
#32 = LINE ( 'NONE', #602, #79 ) ;
#33 = ADVANCED_FACE ( 'NONE', ( #819 ), #974, .F. ) ;
#34 = ORIENTED_EDGE ( 'NONE', *, *, #737, .T. ) ;
#35 = ORIENTED_EDGE ( 'NONE', *, *, #449, .F. ) ;
#36 = CARTESIAN_POINT ( 'NONE',  ( -22.80000000000000782, 1.600000000000000089, -7.000000000000000000 ) ) ;
#37 = CARTESIAN_POINT ( 'NONE',  ( 0.000000000000000000, 5.599999999999999645, 0.000000000000000000 ) ) ;
#38 = VECTOR ( 'NONE', #154, 1000.000000000000000 ) ;
#39 = VECTOR ( 'NONE', #349, 1000.000000000000000 ) ;
#40 = ORIENTED_EDGE ( 'NONE', *, *, #565, .F. ) ;
#41 = DIRECTION ( 'NONE',  ( 9.912705577010320619E-16, 0.000000000000000000, 1.000000000000000000 ) ) ;
#42 = CYLINDRICAL_SURFACE ( 'NONE', #232, 1.299999999999994715 ) ;
#43 = ORIENTED_EDGE ( 'NONE', *, *, #770, .F. ) ;
#44 = ORIENTED_EDGE ( 'NONE', *, *, #61, .F. ) ;
#45 = FACE_OUTER_BOUND ( 'NONE', #870, .T. ) ;
#46 = EDGE_CURVE ( 'NONE', #113, #91, #829, .T. ) ;
#47 = UNCERTAINTY_MEASURE_WITH_UNIT (LENGTH_MEASURE( 1.000000000000000082E-05 ), #164, 'distance_accuracy_value', 'NONE');
#48 = CIRCLE ( 'NONE', #692, 1.300000000000001599 ) ;
#49 = DIRECTION ( 'NONE',  ( 1.000000000000000000, 0.000000000000000000, -0.000000000000000000 ) ) ;
#50 = PLANE ( 'NONE',  #458 ) ;
#51 = ORIENTED_EDGE ( 'NONE', *, *, #46, .F. ) ;
#52 = EDGE_CURVE ( 'NONE', #161, #597, #656, .T. ) ;
#53 = CIRCLE ( 'NONE', #662, 1.250000000000001110 ) ;
#54 = CARTESIAN_POINT ( 'NONE',  ( 22.80000000000000071, 1.600000000000000089, -4.898587196589417759E-16 ) ) ;
#55 = DIRECTION ( 'NONE',  ( 1.000000000000000000, 0.000000000000000000, -0.000000000000000000 ) ) ;
#56 = ORIENTED_EDGE ( 'NONE', *, *, #383, .F. ) ;
#57 = EDGE_LOOP ( 'NONE', ( #189, #4, #1007, #944 ) ) ;
#58 = LINE ( 'NONE', #570, #124 ) ;
#59 = FACE_OUTER_BOUND ( 'NONE', #901, .T. ) ;
#60 = ORIENTED_EDGE ( 'NONE', *, *, #296, .F. ) ;
#61 = EDGE_CURVE ( 'NONE', #821, #433, #32, .T. ) ;
#62 = ORIENTED_EDGE ( 'NONE', *, *, #434, .F. ) ;
#63 = DIRECTION ( 'NONE',  ( 0.000000000000000000, -1.000000000000000000, 0.000000000000000000 ) ) ;
#64 = DIRECTION ( 'NONE',  ( 0.000000000000000000, 0.000000000000000000, -1.000000000000000000 ) ) ;
#65 = EDGE_CURVE ( 'NONE', #863, #368, #857, .T. ) ;
#66 = ORIENTED_EDGE ( 'NONE', *, *, #483, .T. ) ;
#67 = EDGE_LOOP ( 'NONE', ( #742, #445, #651, #430 ) ) ;
#68 = DIRECTION ( 'NONE',  ( -0.000000000000000000, -0.000000000000000000, -1.000000000000000000 ) ) ;
#69 = CIRCLE ( 'NONE', #337, 0.5000000000000000000 ) ;
#70 = DIRECTION ( 'NONE',  ( 0.000000000000000000, 0.000000000000000000, 1.000000000000000000 ) ) ;
#71 = AXIS2_PLACEMENT_3D ( 'NONE', #732, #1065, #237 ) ;
#72 = VERTEX_POINT ( 'NONE', #448 ) ;
#73 = CARTESIAN_POINT ( 'NONE',  ( 0.000000000000000000, 0.000000000000000000, 0.000000000000000000 ) ) ;
#74 = CARTESIAN_POINT ( 'NONE',  ( -14.30000000000000782, 1.599999999999999867, -0.5000000000000000000 ) ) ;
#75 = VECTOR ( 'NONE', #725, 1000.000000000000000 ) ;
#76 = EDGE_CURVE ( 'NONE', #473, #806, #852, .T. ) ;
#77 = DIRECTION ( 'NONE',  ( 0.000000000000000000, 0.000000000000000000, 1.000000000000000000 ) ) ;
#78 = FACE_OUTER_BOUND ( 'NONE', #630, .T. ) ;
#79 = VECTOR ( 'NONE', #691, 1000.000000000000000 ) ;
#80 = ORIENTED_EDGE ( 'NONE', *, *, #52, .F. ) ;
#81 = CARTESIAN_POINT ( 'NONE',  ( -22.80000000000000782, 5.599999999999999645, 0.000000000000000000 ) ) ;
#82 = CARTESIAN_POINT ( 'NONE',  ( -14.80000000000000782, 1.600000000000000089, -0.4999999999999998890 ) ) ;
#83 = DIRECTION ( 'NONE',  ( 0.000000000000000000, 0.000000000000000000, 1.000000000000000000 ) ) ;
#84 = ORIENTED_EDGE ( 'NONE', *, *, #498, .T. ) ;
#85 = DIRECTION ( 'NONE',  ( 0.000000000000000000, 0.000000000000000000, 1.000000000000000000 ) ) ;
#86 = LINE ( 'NONE', #338, #122 ) ;
#87 = DIRECTION ( 'NONE',  ( 1.000000000000000000, 0.000000000000000000, 0.000000000000000000 ) ) ;
#88 = VERTEX_POINT ( 'NONE', #193 ) ;
#89 = CARTESIAN_POINT ( 'NONE',  ( -18.80000000000000782, 1.600000000000000089, -4.200000000000000178 ) ) ;
#90 = FACE_BOUND ( 'NONE', #892, .T. ) ;
#91 = VERTEX_POINT ( 'NONE', #748 ) ;
#92 = ADVANCED_FACE ( 'NONE', ( #25 ), #285, .F. ) ;
#93 = VECTOR ( 'NONE', #568, 1000.000000000000000 ) ;
#94 = FACE_OUTER_BOUND ( 'NONE', #999, .T. ) ;
#95 = CARTESIAN_POINT ( 'NONE',  ( -24.80000000000000071, 10.00000000000001599, 0.000000000000000000 ) ) ;
#96 = EDGE_CURVE ( 'NONE', #765, #299, #363, .T. ) ;
#97 = VECTOR ( 'NONE', #149, 1000.000000000000000 ) ;
#98 = ORIENTED_EDGE ( 'NONE', *, *, #820, .F. ) ;
#99 = DIRECTION ( 'NONE',  ( -1.000000000000000000, 1.204669080539449097E-16, -0.000000000000000000 ) ) ;
#100 = DIRECTION ( 'NONE',  ( 0.000000000000000000, 0.000000000000000000, 1.000000000000000000 ) ) ;
#101 = DIRECTION ( 'NONE',  ( 1.000000000000000000, -1.224646799147354686E-16, 0.000000000000000000 ) ) ;
#102 = VECTOR ( 'NONE', #855, 1000.000000000000000 ) ;
#103 = ORIENTED_EDGE ( 'NONE', *, *, #190, .T. ) ;
#104 = CARTESIAN_POINT ( 'NONE',  ( 24.80000000000000426, 10.00000000000001599, 1.600000000000000089 ) ) ;
#105 = CARTESIAN_POINT ( 'NONE',  ( 26.05000000000000426, 10.00000000000001599, 1.600000000000000089 ) ) ;
#106 = DIRECTION ( 'NONE',  ( 0.000000000000000000, 0.000000000000000000, 1.000000000000000000 ) ) ;
#107 = EDGE_CURVE ( 'NONE', #621, #385, #277, .T. ) ;
#108 = ORIENTED_EDGE ( 'NONE', *, *, #483, .F. ) ;
#109 = ORIENTED_EDGE ( 'NONE', *, *, #837, .F. ) ;
#110 = DIRECTION ( 'NONE',  ( 1.000000000000000000, -1.224646799147354686E-16, 0.000000000000000000 ) ) ;
#111 = AXIS2_PLACEMENT_3D ( 'NONE', #614, #774, #931 ) ;
#112 = CARTESIAN_POINT ( 'NONE',  ( 24.80000000000000426, 10.00000000000001599, 0.000000000000000000 ) ) ;
#113 = VERTEX_POINT ( 'NONE', #199 ) ;
#114 = CARTESIAN_POINT ( 'NONE',  ( -8.750000000000000000, 15.60000000000000320, 1.600000000000000089 ) ) ;
#115 = CARTESIAN_POINT ( 'NONE',  ( 18.79999999999999716, 1.600000000000000089, -4.200000000000000178 ) ) ;
#116 = FACE_OUTER_BOUND ( 'NONE', #949, .T. ) ;
#117 =( GEOMETRIC_REPRESENTATION_CONTEXT ( 3 ) GLOBAL_UNCERTAINTY_ASSIGNED_CONTEXT ( ( #463 ) ) GLOBAL_UNIT_ASSIGNED_CONTEXT ( ( #1020, #619, #856 ) ) REPRESENTATION_CONTEXT ( 'NONE', 'WORKASPACE' ) );
#118 = EDGE_LOOP ( 'NONE', ( #676, #723, #976, #467 ) ) ;
#119 = CARTESIAN_POINT ( 'NONE',  ( -8.750000000000000000, 15.60000000000000320, -7.000000000000004441 ) ) ;
#120 = CARTESIAN_POINT ( 'NONE',  ( 18.79999999999999716, 1.600000000000000089, -5.499999999999994671 ) ) ;
#121 = CARTESIAN_POINT ( 'NONE',  ( 14.79999999999999361, 1.600000000000000089, -3.046921236278612963E-15 ) ) ;
#122 = VECTOR ( 'NONE', #978, 1000.000000000000000 ) ;
#123 = EDGE_CURVE ( 'NONE', #794, #473, #1010, .T. ) ;
#124 = VECTOR ( 'NONE', #260, 1000.000000000000000 ) ;
#125 = ORIENTED_EDGE ( 'NONE', *, *, #722, .F. ) ;
#126 = DIRECTION ( 'NONE',  ( 0.000000000000000000, -0.000000000000000000, 1.000000000000000000 ) ) ;
#127 = DIRECTION ( 'NONE',  ( 0.000000000000000000, 1.000000000000000000, 0.000000000000000000 ) ) ;
#128 = FACE_BOUND ( 'NONE', #132, .T. ) ;
#129 = VECTOR ( 'NONE', #826, 1000.000000000000000 ) ;
#130 = EDGE_CURVE ( 'NONE', #88, #170, #20, .T. ) ;
#131 = ORIENTED_EDGE ( 'NONE', *, *, #343, .F. ) ;
#132 = EDGE_LOOP ( 'NONE', ( #538, #489 ) ) ;
#133 = VECTOR ( 'NONE', #64, 1000.000000000000000 ) ;
#134 = CARTESIAN_POINT ( 'NONE',  ( 18.79999999999999716, 5.599999999999999645, -4.200000000000000178 ) ) ;
#135 = DIRECTION ( 'NONE',  ( -0.000000000000000000, -1.000000000000000000, -0.000000000000000000 ) ) ;
#136 = ORIENTED_EDGE ( 'NONE', *, *, #920, .T. ) ;
#137 = ORIENTED_EDGE ( 'NONE', *, *, #373, .T. ) ;
#138 = DIRECTION ( 'NONE',  ( 1.000000000000000000, 0.000000000000000000, 0.000000000000000000 ) ) ;
#139 = CIRCLE ( 'NONE', #906, 1.250000000000001110 ) ;
#140 = ADVANCED_FACE ( 'NONE', ( #78 ), #942, .F. ) ;
#141 = LINE ( 'NONE', #402, #145 ) ;
#142 = CARTESIAN_POINT ( 'NONE',  ( 22.79999999999999361, 5.599999999999999645, -7.000000000000004441 ) ) ;
#143 = EDGE_CURVE ( 'NONE', #981, #523, #169, .T. ) ;
#144 = EDGE_LOOP ( 'NONE', ( #109, #1029, #43, #811 ) ) ;
#145 = VECTOR ( 'NONE', #641, 1000.000000000000000 ) ;
#146 = ORIENTED_EDGE ( 'NONE', *, *, #1013, .F. ) ;
#147 = EDGE_CURVE ( 'NONE', #928, #875, #779, .T. ) ;
#148 = DIRECTION ( 'NONE',  ( -1.000000000000000000, -0.000000000000000000, -0.000000000000000000 ) ) ;
#149 = DIRECTION ( 'NONE',  ( 0.000000000000000000, -1.000000000000000000, 0.000000000000000000 ) ) ;
#150 = ORIENTED_EDGE ( 'NONE', *, *, #756, .F. ) ;
#151 = VERTEX_POINT ( 'NONE', #695 ) ;
#152 = LINE ( 'NONE', #743, #956 ) ;
#153 = DIRECTION ( 'NONE',  ( 0.000000000000000000, 0.000000000000000000, 1.000000000000000000 ) ) ;
#154 = DIRECTION ( 'NONE',  ( -9.912705577010320619E-16, 0.000000000000000000, -1.000000000000000000 ) ) ;
#155 = VERTEX_POINT ( 'NONE', #1016 ) ;
#156 = EDGE_LOOP ( 'NONE', ( #202, #264, #60, #1011, #287, #80 ) ) ;
#157 = EDGE_CURVE ( 'NONE', #645, #597, #993, .T. ) ;
#158 = DIRECTION ( 'NONE',  ( -0.000000000000000000, -1.000000000000000000, 0.000000000000000000 ) ) ;
#159 = LINE ( 'NONE', #491, #281 ) ;
#160 = LINE ( 'NONE', #492, #782 ) ;
#161 = VERTEX_POINT ( 'NONE', #1026 ) ;
#162 = EDGE_CURVE ( 'NONE', #838, #88, #912, .T. ) ;
#163 = EDGE_LOOP ( 'NONE', ( #179, #671 ) ) ;
#164 =( LENGTH_UNIT ( ) NAMED_UNIT ( * ) SI_UNIT ( .MILLI., .METRE. ) );
#165 = DIRECTION ( 'NONE',  ( -0.000000000000000000, -0.000000000000000000, 1.000000000000000000 ) ) ;
#166 = CARTESIAN_POINT ( 'NONE',  ( -23.00710678118655750, 5.807106781186546662, -1.622238286853294316E-16 ) ) ;
#167 = DIRECTION ( 'NONE',  ( 0.000000000000000000, 0.000000000000000000, -1.000000000000000000 ) ) ;
#168 = ADVANCED_FACE ( 'NONE', ( #947 ), #833, .F. ) ;
#169 = CIRCLE ( 'NONE', #775, 1.250000000000001110 ) ;
#170 = VERTEX_POINT ( 'NONE', #521 ) ;
#171 = CARTESIAN_POINT ( 'NONE',  ( 18.79999999999999716, 1.600000000000000089, -2.900000000000004796 ) ) ;
#172 = CARTESIAN_POINT ( 'NONE',  ( -28.79999999999999361, 18.00000000000001421, 0.000000000000000000 ) ) ;
#173 = ORIENTED_EDGE ( 'NONE', *, *, #1055, .F. ) ;
#174 = FACE_OUTER_BOUND ( 'NONE', #144, .T. ) ;
#175 = CARTESIAN_POINT ( 'NONE',  ( -8.750000000000000000, 15.60000000000000320, 1.600000000000000089 ) ) ;
#176 = AXIS2_PLACEMENT_3D ( 'NONE', #690, #601, #525 ) ;
#177 = DIRECTION ( 'NONE',  ( 2.478176394252582127E-16, 0.000000000000000000, 1.000000000000000000 ) ) ;
#178 = ADVANCED_FACE ( 'NONE', ( #515 ), #280, .F. ) ;
#179 = ORIENTED_EDGE ( 'NONE', *, *, #704, .T. ) ;
#180 = VECTOR ( 'NONE', #418, 1000.000000000000000 ) ;
#181 = CARTESIAN_POINT ( 'NONE',  ( -14.30000000000000782, 6.099999999999999645, 0.000000000000000000 ) ) ;
#182 = EDGE_CURVE ( 'NONE', #597, #91, #442, .T. ) ;
#183 = DIRECTION ( 'NONE',  ( 1.000000000000000000, 0.000000000000000000, 0.000000000000000000 ) ) ;
#184 = ORIENTED_EDGE ( 'NONE', *, *, #26, .T. ) ;
#185 = CYLINDRICAL_SURFACE ( 'NONE', #590, 1.250000000000001110 ) ;
#186 = SURFACE_STYLE_USAGE ( .BOTH. , #936 ) ;
#187 = CARTESIAN_POINT ( 'NONE',  ( -14.80000000000000959, 5.599999999999999645, -7.000000000000000000 ) ) ;
#188 = AXIS2_PLACEMENT_3D ( 'NONE', #899, #910, #903 ) ;
#189 = ORIENTED_EDGE ( 'NONE', *, *, #1037, .T. ) ;
#190 = EDGE_CURVE ( 'NONE', #433, #113, #471, .T. ) ;
#191 = CARTESIAN_POINT ( 'NONE',  ( -18.80000000000000782, 5.599999999999999645, -4.200000000000000178 ) ) ;
#192 = FACE_OUTER_BOUND ( 'NONE', #487, .T. ) ;
#193 = CARTESIAN_POINT ( 'NONE',  ( -8.750000000000000000, 1.600000000000000089, 1.600000000000000089 ) ) ;
#194 = AXIS2_PLACEMENT_3D ( 'NONE', #778, #946, #773 ) ;
#195 = ORIENTED_EDGE ( 'NONE', *, *, #982, .F. ) ;
#196 = EDGE_LOOP ( 'NONE', ( #297, #417, #989, #657 ) ) ;
#197 = CARTESIAN_POINT ( 'NONE',  ( 8.750000000000000000, 15.60000000000000320, 0.000000000000000000 ) ) ;
#198 = FILL_AREA_STYLE_COLOUR ( '', #390 ) ;
#199 = CARTESIAN_POINT ( 'NONE',  ( 14.29999999999999361, 1.600000000000000089, 0.000000000000000000 ) ) ;
#200 = AXIS2_PLACEMENT_3D ( 'NONE', #1040, #63, #888 ) ;
#201 = ORIENTED_EDGE ( 'NONE', *, *, #130, .T. ) ;
#202 = ORIENTED_EDGE ( 'NONE', *, *, #1024, .F. ) ;
#203 = DIRECTION ( 'NONE',  ( 0.000000000000000000, 0.000000000000000000, 1.000000000000000000 ) ) ;
#204 = LINE ( 'NONE', #613, #1006 ) ;
#205 = DIRECTION ( 'NONE',  ( -0.000000000000000000, -1.000000000000000000, -0.000000000000000000 ) ) ;
#206 = ORIENTED_EDGE ( 'NONE', *, *, #96, .F. ) ;
#207 = ORIENTED_EDGE ( 'NONE', *, *, #162, .T. ) ;
#208 = CARTESIAN_POINT ( 'NONE',  ( 0.000000000000000000, 1.600000000000000089, 0.000000000000000000 ) ) ;
#209 = LINE ( 'NONE', #388, #730 ) ;
#210 = AXIS2_PLACEMENT_3D ( 'NONE', #208, #887, #126 ) ;
#211 = VERTEX_POINT ( 'NONE', #1041 ) ;
#212 = VERTEX_POINT ( 'NONE', #227 ) ;
#213 = CARTESIAN_POINT ( 'NONE',  ( 28.80000000000001492, 18.00000000000001066, 1.600000000000000089 ) ) ;
#214 = CARTESIAN_POINT ( 'NONE',  ( 14.79999999999999361, 5.599999999999999645, -3.046921236278612963E-15 ) ) ;
#215 = EDGE_CURVE ( 'NONE', #645, #1054, #318, .T. ) ;
#216 = AXIS2_PLACEMENT_3D ( 'NONE', #958, #877, #1032 ) ;
#217 = VECTOR ( 'NONE', #560, 1000.000000000000000 ) ;
#218 = ORIENTED_EDGE ( 'NONE', *, *, #760, .F. ) ;
#219 = CARTESIAN_POINT ( 'NONE',  ( 14.79999999999999183, 5.599999999999999645, -7.000000000000003553 ) ) ;
#220 = DIRECTION ( 'NONE',  ( 0.000000000000000000, 1.000000000000000000, -0.000000000000000000 ) ) ;
#221 = PLANE ( 'NONE',  #975 ) ;
#222 = AXIS2_PLACEMENT_3D ( 'NONE', #970, #987, #478 ) ;
#223 = VERTEX_POINT ( 'NONE', #1036 ) ;
#224 = ORIENTED_EDGE ( 'NONE', *, *, #76, .F. ) ;
#225 = ADVANCED_FACE ( 'NONE', ( #59 ), #536, .F. ) ;
#226 = LINE ( 'NONE', #1046, #395 ) ;
#227 = CARTESIAN_POINT ( 'NONE',  ( -14.30000000000000782, 1.600000000000000089, 0.000000000000000000 ) ) ;
#228 = ORIENTED_EDGE ( 'NONE', *, *, #868, .F. ) ;
#229 = EDGE_LOOP ( 'NONE', ( #913, #413, #967, #374 ) ) ;
#230 = CARTESIAN_POINT ( 'NONE',  ( -14.80000000000000782, 5.599999999999999645, 0.000000000000000000 ) ) ;
#231 = CARTESIAN_POINT ( 'NONE',  ( -27.79999999999999005, 18.00000000000001421, 1.600000000000000089 ) ) ;
#232 = AXIS2_PLACEMENT_3D ( 'NONE', #1053, #135, #803 ) ;
#233 = EDGE_LOOP ( 'NONE', ( #789, #718, #713, #828 ) ) ;
#234 = APPLICATION_CONTEXT ( 'automotive_design' ) ;
#235 = ORIENTED_EDGE ( 'NONE', *, *, #440, .T. ) ;
#236 = CARTESIAN_POINT ( 'NONE',  ( 8.750000000000000000, 15.60000000000000320, 1.600000000000000089 ) ) ;
#237 = DIRECTION ( 'NONE',  ( 1.000000000000000000, 0.000000000000000000, 0.000000000000000000 ) ) ;
#238 = CLOSED_SHELL ( 'NONE', ( #293, #486, #1042, #529, #709, #27, #92, #275, #804, #168, #717, #405, #140, #252, #551, #562, #576, #1048, #644, #341, #995, #827, #610, #917, #33, #545, #881, #178, #849, #841, #1057, #677, #745, #225 ) ) ;
#239 = VERTEX_POINT ( 'NONE', #808 ) ;
#240 = VERTEX_POINT ( 'NONE', #633 ) ;
#241 = DIRECTION ( 'NONE',  ( -1.000000000000000000, 0.000000000000000000, 0.000000000000000000 ) ) ;
#242 = LINE ( 'NONE', #751, #785 ) ;
#243 = AXIS2_PLACEMENT_3D ( 'NONE', #23, #353, #431 ) ;
#244 = CARTESIAN_POINT ( 'NONE',  ( 14.79999999999999183, 5.599999999999999645, -0.2071067811865475727 ) ) ;
#245 = EDGE_CURVE ( 'NONE', #724, #239, #874, .T. ) ;
#246 = EDGE_LOOP ( 'NONE', ( #616, #924, #228, #125 ) ) ;
#247 = ORIENTED_EDGE ( 'NONE', *, *, #920, .F. ) ;
#248 =( NAMED_UNIT ( * ) PLANE_ANGLE_UNIT ( ) SI_UNIT ( $, .RADIAN. ) );
#249 = AXIS2_PLACEMENT_3D ( 'NONE', #588, #183, #832 ) ;
#250 = CARTESIAN_POINT ( 'NONE',  ( -22.80000000000000782, 6.099999999999999645, 0.000000000000000000 ) ) ;
#251 = DIRECTION ( 'NONE',  ( -1.927470528863119049E-16, 1.000000000000000000, -0.000000000000000000 ) ) ;
#252 = ADVANCED_FACE ( 'NONE', ( #116, #394, #128, #295 ), #50, .T. ) ;
#253 = CARTESIAN_POINT ( 'NONE',  ( 14.79999999999999183, 5.599999999999999645, -7.000000000000003553 ) ) ;
#254 = ORIENTED_EDGE ( 'NONE', *, *, #869, .T. ) ;
#255 = APPLICATION_PROTOCOL_DEFINITION ( 'draft international standard', 'automotive_design', 1998, #234 ) ;
#256 = LINE ( 'NONE', #659, #468 ) ;
#257 = FACE_OUTER_BOUND ( 'NONE', #196, .T. ) ;
#258 = VERTEX_POINT ( 'NONE', #466 ) ;
#259 = EDGE_CURVE ( 'NONE', #844, #585, #681, .T. ) ;
#260 = DIRECTION ( 'NONE',  ( -0.000000000000000000, -0.000000000000000000, 1.000000000000000000 ) ) ;
#261 = LINE ( 'NONE', #941, #419 ) ;
#262 = EDGE_CURVE ( 'NONE', #211, #72, #209, .T. ) ;
#263 = CARTESIAN_POINT ( 'NONE',  ( -22.80000000000000782, 5.599999999999999645, -0.5000000000000000000 ) ) ;
#264 = ORIENTED_EDGE ( 'NONE', *, *, #837, .T. ) ;
#265 = EDGE_CURVE ( 'NONE', #1054, #211, #721, .T. ) ;
#266 = CARTESIAN_POINT ( 'NONE',  ( 14.79999999999999361, 5.599999999999999645, -0.5000000000000000000 ) ) ;
#267 = CYLINDRICAL_SURFACE ( 'NONE', #923, 1.250000000000001110 ) ;
#268 = MECHANICAL_DESIGN_GEOMETRIC_PRESENTATION_REPRESENTATION (  '', ( #319 ), #117 ) ;
#269 = CARTESIAN_POINT ( 'NONE',  ( 22.80000000000000071, 5.599999999999999645, -0.5000000000000000000 ) ) ;
#270 = EDGE_LOOP ( 'NONE', ( #933, #1050, #224, #569 ) ) ;
#271 = CARTESIAN_POINT ( 'NONE',  ( -26.05000000000000071, 10.00000000000001599, 1.600000000000000089 ) ) ;
#272 = PRODUCT_DEFINITION_FORMATION_WITH_SPECIFIED_SOURCE ( 'ANY', '', #544, .NOT_KNOWN. ) ;
#273 = CARTESIAN_POINT ( 'NONE',  ( -27.79999999999999005, 0.000000000000000000, 0.000000000000000000 ) ) ;
#274 = DIRECTION ( 'NONE',  ( 0.000000000000000000, 0.000000000000000000, -1.000000000000000000 ) ) ;
#275 = ADVANCED_FACE ( 'NONE', ( #550, #953 ), #221, .F. ) ;
#276 = ORIENTED_EDGE ( 'NONE', *, *, #65, .F. ) ;
#277 = CIRCLE ( 'NONE', #500, 0.5000000000000000000 ) ;
#278 = FACE_OUTER_BOUND ( 'NONE', #118, .T. ) ;
#279 = DIRECTION ( 'NONE',  ( 0.000000000000000000, -1.000000000000000000, 0.000000000000000000 ) ) ;
#280 = CYLINDRICAL_SURFACE ( 'NONE', #548, 0.5000000000000000000 ) ;
#281 = VECTOR ( 'NONE', #165, 1000.000000000000000 ) ;
#282 = VERTEX_POINT ( 'NONE', #317 ) ;
#283 = DIRECTION ( 'NONE',  ( 0.000000000000000000, 0.000000000000000000, 1.000000000000000000 ) ) ;
#284 = FACE_OUTER_BOUND ( 'NONE', #728, .T. ) ;
#285 = PLANE ( 'NONE',  #111 ) ;
#286 = CIRCLE ( 'NONE', #727, 1.250000000000001110 ) ;
#287 = ORIENTED_EDGE ( 'NONE', *, *, #182, .F. ) ;
#288 = FACE_BOUND ( 'NONE', #639, .T. ) ;
#289 = CARTESIAN_POINT ( 'NONE',  ( -8.750000000000000000, 1.600000000000000089, 1.600000000000000089 ) ) ;
#290 = AXIS2_PLACEMENT_3D ( 'NONE', #134, #470, #392 ) ;
#291 = ORIENTED_EDGE ( 'NONE', *, *, #123, .T. ) ;
#292 = APPLICATION_CONTEXT ( 'automotive_design' ) ;
#293 = ADVANCED_FACE ( 'NONE', ( #883 ), #42, .F. ) ;
#294 = CYLINDRICAL_SURFACE ( 'NONE', #678, 0.5000000000000000000 ) ;
#295 = FACE_BOUND ( 'NONE', #28, .T. ) ;
#296 = EDGE_CURVE ( 'NONE', #113, #151, #715, .T. ) ;
#297 = ORIENTED_EDGE ( 'NONE', *, *, #948, .F. ) ;
#298 = EDGE_CURVE ( 'NONE', #457, #528, #384, .T. ) ;
#299 = VERTEX_POINT ( 'NONE', #637 ) ;
#300 = CARTESIAN_POINT ( 'NONE',  ( -14.80000000000000782, 1.600000000000000089, 0.000000000000000000 ) ) ;
#301 = DIRECTION ( 'NONE',  ( 0.000000000000000000, -1.000000000000000000, 0.000000000000000000 ) ) ;
#302 = EDGE_LOOP ( 'NONE', ( #276, #8, #348, #35 ) ) ;
#303 = PLANE ( 'NONE',  #890 ) ;
#304 = ADVANCED_BREP_SHAPE_REPRESENTATION ( 'EtherWizRiscPC7kBackplate', ( #812, #733 ), #699 ) ;
#305 = LINE ( 'NONE', #54, #477 ) ;
#306 = DIRECTION ( 'NONE',  ( 2.478176394252581634E-16, -0.000000000000000000, 1.000000000000000000 ) ) ;
#307 = DIRECTION ( 'NONE',  ( 0.000000000000000000, 1.000000000000000000, 0.000000000000000000 ) ) ;
#308 = EDGE_CURVE ( 'NONE', #663, #473, #969, .T. ) ;
#309 = ORIENTED_EDGE ( 'NONE', *, *, #647, .T. ) ;
#310 = DIRECTION ( 'NONE',  ( -1.000000000000000000, 0.000000000000000000, 1.084202172485504187E-16 ) ) ;
#311 = FACE_OUTER_BOUND ( 'NONE', #302, .T. ) ;
#312 = DIRECTION ( 'NONE',  ( 0.000000000000000000, 1.000000000000000000, 0.000000000000000000 ) ) ;
#313 = AXIS2_PLACEMENT_3D ( 'NONE', #685, #205, #862 ) ;
#314 = EDGE_LOOP ( 'NONE', ( #907, #380, #509, #352 ) ) ;
#315 = ORIENTED_EDGE ( 'NONE', *, *, #770, .T. ) ;
#316 = LINE ( 'NONE', #230, #598 ) ;
#317 = CARTESIAN_POINT ( 'NONE',  ( -27.79999999999999005, 0.000000000000000000, 1.600000000000000089 ) ) ;
#318 = LINE ( 'NONE', #214, #926 ) ;
#319 = STYLED_ITEM ( 'NONE', ( #520 ), #812 ) ;
#320 = VERTEX_POINT ( 'NONE', #557 ) ;
#321 = CARTESIAN_POINT ( 'NONE',  ( -14.80000000000000959, 5.599999999999999645, -7.000000000000000000 ) ) ;
#322 = PLANE ( 'NONE',  #646 ) ;
#323 = VECTOR ( 'NONE', #889, 1000.000000000000000 ) ;
#324 = VERTEX_POINT ( 'NONE', #142 ) ;
#325 = ORIENTED_EDGE ( 'NONE', *, *, #379, .F. ) ;
#326 = DIRECTION ( 'NONE',  ( -0.000000000000000000, 0.000000000000000000, 1.000000000000000000 ) ) ;
#327 = CARTESIAN_POINT ( 'NONE',  ( -14.30000000000000782, 6.099999999999999645, 0.000000000000000000 ) ) ;
#328 = FACE_BOUND ( 'NONE', #163, .T. ) ;
#329 = DIRECTION ( 'NONE',  ( 1.224646799147354686E-16, 1.000000000000000000, -0.000000000000000000 ) ) ;
#330 = ORIENTED_EDGE ( 'NONE', *, *, #938, .F. ) ;
#331 = EDGE_CURVE ( 'NONE', #211, #324, #867, .T. ) ;
#332 = PLANE ( 'NONE',  #188 ) ;
#333 = AXIS2_PLACEMENT_3D ( 'NONE', #74, #415, #739 ) ;
#334 = CARTESIAN_POINT ( 'NONE',  ( 14.29999999999999361, 6.099999999999999645, 0.000000000000000000 ) ) ;
#335 = DIRECTION ( 'NONE',  ( -1.927470528863119049E-16, 1.000000000000000000, -0.000000000000000000 ) ) ;
#336 = EDGE_LOOP ( 'NONE', ( #136, #254, #426, #12 ) ) ;
#337 = AXIS2_PLACEMENT_3D ( 'NONE', #459, #680, #100 ) ;
#338 = CARTESIAN_POINT ( 'NONE',  ( -14.30000000000000782, 5.599999999999999645, 0.000000000000000000 ) ) ;
#339 = FACE_OUTER_BOUND ( 'NONE', #270, .T. ) ;
#340 = CARTESIAN_POINT ( 'NONE',  ( -22.80000000000000782, 5.599999999999999645, 0.000000000000000000 ) ) ;
#341 = ADVANCED_FACE ( 'NONE', ( #835 ), #322, .F. ) ;
#342 = ORIENTED_EDGE ( 'NONE', *, *, #464, .T. ) ;
#343 = EDGE_CURVE ( 'NONE', #212, #502, #86, .T. ) ;
#344 = VECTOR ( 'NONE', #279, 1000.000000000000000 ) ;
#345 = CARTESIAN_POINT ( 'NONE',  ( -22.80000000000000782, 5.599999999999999645, -7.000000000000000000 ) ) ;
#346 = FACE_OUTER_BOUND ( 'NONE', #859, .T. ) ;
#347 = EDGE_CURVE ( 'NONE', #91, #1054, #497, .T. ) ;
#348 = ORIENTED_EDGE ( 'NONE', *, *, #722, .T. ) ;
#349 = DIRECTION ( 'NONE',  ( -1.000000000000000000, -0.000000000000000000, -0.000000000000000000 ) ) ;
#350 = DIRECTION ( 'NONE',  ( -0.000000000000000000, -0.000000000000000000, -1.000000000000000000 ) ) ;
#351 = LINE ( 'NONE', #991, #406 ) ;
#352 = ORIENTED_EDGE ( 'NONE', *, *, #245, .F. ) ;
#353 = DIRECTION ( 'NONE',  ( -0.000000000000000000, -0.000000000000000000, -1.000000000000000000 ) ) ;
#354 = AXIS2_PLACEMENT_3D ( 'NONE', #740, #1005, #425 ) ;
#355 = FACE_OUTER_BOUND ( 'NONE', #609, .T. ) ;
#356 = ORIENTED_EDGE ( 'NONE', *, *, #756, .T. ) ;
#357 = DIRECTION ( 'NONE',  ( 0.000000000000000000, 0.000000000000000000, -1.000000000000000000 ) ) ;
#358 = EDGE_CURVE ( 'NONE', #223, #320, #817, .T. ) ;
#359 = AXIS2_PLACEMENT_3D ( 'NONE', #757, #658, #577 ) ;
#360 = DIRECTION ( 'NONE',  ( 0.000000000000000000, 1.000000000000000000, -0.000000000000000000 ) ) ;
#361 = CARTESIAN_POINT ( 'NONE',  ( 18.79999999999999716, 5.599999999999999645, -2.900000000000004796 ) ) ;
#362 = ORIENTED_EDGE ( 'NONE', *, *, #600, .F. ) ;
#363 = CIRCLE ( 'NONE', #914, 1.300000000000001599 ) ;
#364 = CARTESIAN_POINT ( 'NONE',  ( 24.80000000000000426, 10.00000000000001599, 1.600000000000000089 ) ) ;
#365 = EDGE_CURVE ( 'NONE', #697, #502, #945, .T. ) ;
#366 = CARTESIAN_POINT ( 'NONE',  ( -28.79999999999999361, 1.641026710857454456E-14, 0.000000000000000000 ) ) ;
#367 = ORIENTED_EDGE ( 'NONE', *, *, #331, .F. ) ;
#368 = VERTEX_POINT ( 'NONE', #171 ) ;
#369 = FACE_BOUND ( 'NONE', #885, .T. ) ;
#370 = CYLINDRICAL_SURFACE ( 'NONE', #537, 0.5000000000000000000 ) ;
#371 = CARTESIAN_POINT ( 'NONE',  ( -8.750000000000000000, 1.600000000000000089, -7.000000000000004441 ) ) ;
#372 = ORIENTED_EDGE ( 'NONE', *, *, #595, .F. ) ;
#373 = EDGE_CURVE ( 'NONE', #554, #1023, #540, .T. ) ;
#374 = ORIENTED_EDGE ( 'NONE', *, *, #869, .F. ) ;
#375 = AXIS2_PLACEMENT_3D ( 'NONE', #784, #964, #797 ) ;
#376 = DIRECTION ( 'NONE',  ( 1.000000000000000000, 0.000000000000000000, 0.000000000000000000 ) ) ;
#377 = DIRECTION ( 'NONE',  ( -0.000000000000000000, -0.000000000000000000, -1.000000000000000000 ) ) ;
#378 = VECTOR ( 'NONE', #480, 1000.000000000000000 ) ;
#379 = EDGE_CURVE ( 'NONE', #502, #240, #746, .T. ) ;
#380 = ORIENTED_EDGE ( 'NONE', *, *, #640, .T. ) ;
#381 = ORIENTED_EDGE ( 'NONE', *, *, #988, .F. ) ;
#382 = DIRECTION ( 'NONE',  ( -9.912705577010320619E-16, 0.000000000000000000, -1.000000000000000000 ) ) ;
#383 = EDGE_CURVE ( 'NONE', #170, #994, #242, .T. ) ;
#384 = LINE ( 'NONE', #1047, #508 ) ;
#385 = VERTEX_POINT ( 'NONE', #5 ) ;
#386 = CIRCLE ( 'NONE', #333, 0.5000000000000000000 ) ;
#387 = FACE_OUTER_BOUND ( 'NONE', #534, .T. ) ;
#388 = CARTESIAN_POINT ( 'NONE',  ( 22.80000000000000071, 1.599999999999999867, -0.4999999999999994449 ) ) ;
#389 = EDGE_CURVE ( 'NONE', #547, #88, #654, .T. ) ;
#390 = COLOUR_RGB ( '',0.8941176470588234615, 0.8941176470588234615, 0.8941176470588234615 ) ;
#391 = PLANE ( 'NONE',  #512 ) ;
#392 = DIRECTION ( 'NONE',  ( 0.000000000000000000, 0.000000000000000000, 1.000000000000000000 ) ) ;
#393 = PRODUCT_DEFINITION_CONTEXT ( 'detailed design', #292, 'design' ) ;
#394 = FACE_BOUND ( 'NONE', #896, .T. ) ;
#395 = VECTOR ( 'NONE', #220, 1000.000000000000000 ) ;
#396 = ORIENTED_EDGE ( 'NONE', *, *, #343, .T. ) ;
#397 = ORIENTED_EDGE ( 'NONE', *, *, #259, .T. ) ;
#398 = PLANE ( 'NONE',  #200 ) ;
#399 = CARTESIAN_POINT ( 'NONE',  ( 0.000000000000000000, 5.599999999999999645, -0.5000000000000000000 ) ) ;
#400 = ORIENTED_EDGE ( 'NONE', *, *, #687, .F. ) ;
#401 = ORIENTED_EDGE ( 'NONE', *, *, #434, .T. ) ;
#402 = CARTESIAN_POINT ( 'NONE',  ( 0.000000000000000000, 15.60000000000000320, 0.000000000000000000 ) ) ;
#403 = CARTESIAN_POINT ( 'NONE',  ( 28.80000000000001847, 9.356301545485782043E-15, 0.000000000000000000 ) ) ;
#404 = EDGE_LOOP ( 'NONE', ( #29, #879, #961, #1056 ) ) ;
#405 = ADVANCED_FACE ( 'NONE', ( #984 ), #332, .F. ) ;
#406 = VECTOR ( 'NONE', #251, 1000.000000000000000 ) ;
#407 = ORIENTED_EDGE ( 'NONE', *, *, #308, .F. ) ;
#408 = PRODUCT_CONTEXT ( 'NONE', #234, 'mechanical' ) ;
#409 = CARTESIAN_POINT ( 'NONE',  ( -14.59289321881345991, 5.807106781186546662, -1.263547543941434395E-16 ) ) ;
#410 = VECTOR ( 'NONE', #485, 1000.000000000000000 ) ;
#411 = ORIENTED_EDGE ( 'NONE', *, *, #873, .F. ) ;
#412 = EDGE_CURVE ( 'NONE', #450, #547, #159, .T. ) ;
#413 = ORIENTED_EDGE ( 'NONE', *, *, #389, .T. ) ;
#414 = DIRECTION ( 'NONE',  ( 1.000000000000000000, 0.000000000000000000, 0.000000000000000000 ) ) ;
#415 = DIRECTION ( 'NONE',  ( -0.000000000000000000, 1.000000000000000000, -0.000000000000000000 ) ) ;
#416 = CARTESIAN_POINT ( 'NONE',  ( 28.80000000000001492, 18.00000000000001066, 0.000000000000000000 ) ) ;
#417 = ORIENTED_EDGE ( 'NONE', *, *, #517, .T. ) ;
#418 = DIRECTION ( 'NONE',  ( -0.000000000000000000, -0.000000000000000000, 1.000000000000000000 ) ) ;
#419 = VECTOR ( 'NONE', #860, 1000.000000000000000 ) ;
#420 = LINE ( 'NONE', #172, #854 ) ;
#421 = EDGE_CURVE ( 'NONE', #729, #212, #386, .T. ) ;
#422 = DIRECTION ( 'NONE',  ( -0.000000000000000000, -0.000000000000000000, 1.000000000000000000 ) ) ;
#423 = ORIENTED_EDGE ( 'NONE', *, *, #595, .T. ) ;
#424 = DIRECTION ( 'NONE',  ( -1.000000000000000000, 0.000000000000000000, -0.000000000000000000 ) ) ;
#425 = DIRECTION ( 'NONE',  ( 1.000000000000000000, 0.000000000000000000, -0.000000000000000000 ) ) ;
#426 = ORIENTED_EDGE ( 'NONE', *, *, #960, .T. ) ;
#427 = FACE_OUTER_BOUND ( 'NONE', #22, .T. ) ;
#428 = DIRECTION ( 'NONE',  ( 1.000000000000000000, 0.000000000000000000, 0.000000000000000000 ) ) ;
#429 = DIRECTION ( 'NONE',  ( 0.000000000000000000, 0.000000000000000000, 1.000000000000000000 ) ) ;
#430 = ORIENTED_EDGE ( 'NONE', *, *, #308, .T. ) ;
#431 = DIRECTION ( 'NONE',  ( -1.000000000000000000, 0.000000000000000000, 0.000000000000000000 ) ) ;
#432 = DIRECTION ( 'NONE',  ( -0.000000000000000000, 1.000000000000000000, 0.000000000000000000 ) ) ;
#433 = VERTEX_POINT ( 'NONE', #1069 ) ;
#434 = EDGE_CURVE ( 'NONE', #858, #385, #256, .T. ) ;
#435 = CARTESIAN_POINT ( 'NONE',  ( 24.80000000000000426, 10.00000000000001599, 1.600000000000000089 ) ) ;
#436 = VECTOR ( 'NONE', #310, 1000.000000000000000 ) ;
#437 = CARTESIAN_POINT ( 'NONE',  ( -14.30000000000000782, 5.599999999999999645, -0.5000000000000000000 ) ) ;
#438 = DIRECTION ( 'NONE',  ( -0.000000000000000000, -1.000000000000000000, -0.000000000000000000 ) ) ;
#439 = ORIENTED_EDGE ( 'NONE', *, *, #647, .F. ) ;
#440 = EDGE_CURVE ( 'NONE', #528, #994, #578, .T. ) ;
#441 = CARTESIAN_POINT ( 'NONE',  ( -24.80000000000000071, 10.00000000000001599, 1.600000000000000089 ) ) ;
#442 = LINE ( 'NONE', #121, #1014 ) ;
#443 = ORIENTED_EDGE ( 'NONE', *, *, #517, .F. ) ;
#444 = VECTOR ( 'NONE', #438, 1000.000000000000000 ) ;
#445 = ORIENTED_EDGE ( 'NONE', *, *, #839, .F. ) ;
#446 = FACE_OUTER_BOUND ( 'NONE', #156, .T. ) ;
#447 = CARTESIAN_POINT ( 'NONE',  ( 23.30000000000000071, 6.099999999999999645, 0.000000000000000000 ) ) ;
#448 = CARTESIAN_POINT ( 'NONE',  ( 22.80000000000000071, 1.600000000000000089, -0.4999999999999994449 ) ) ;
#449 = EDGE_CURVE ( 'NONE', #368, #816, #884, .T. ) ;
#450 = VERTEX_POINT ( 'NONE', #996 ) ;
#451 = ORIENTED_EDGE ( 'NONE', *, *, #634, .T. ) ;
#452 = DIRECTION ( 'NONE',  ( -1.000000000000000000, 0.000000000000000000, 0.000000000000000000 ) ) ;
#453 = DIRECTION ( 'NONE',  ( 0.000000000000000000, -1.000000000000000000, 0.000000000000000000 ) ) ;
#454 = EDGE_CURVE ( 'NONE', #223, #858, #582, .T. ) ;
#455 = PRESENTATION_LAYER_ASSIGNMENT (  '', '', ( #319 ) ) ;
#456 = EDGE_LOOP ( 'NONE', ( #552, #761, #1067, #702 ) ) ;
#457 = VERTEX_POINT ( 'NONE', #916 ) ;
#458 = AXIS2_PLACEMENT_3D ( 'NONE', #973, #624, #55 ) ;
#459 = CARTESIAN_POINT ( 'NONE',  ( 23.30000000000000071, 1.599999999999999867, -0.5000000000000000000 ) ) ;
#460 = DIRECTION ( 'NONE',  ( 2.478176394252581634E-16, -0.000000000000000000, 1.000000000000000000 ) ) ;
#461 = ORIENTED_EDGE ( 'NONE', *, *, #143, .T. ) ;
#462 = EDGE_LOOP ( 'NONE', ( #522, #66 ) ) ;
#463 = UNCERTAINTY_MEASURE_WITH_UNIT (LENGTH_MEASURE( 1.000000000000000082E-05 ), #1020, 'distance_accuracy_value', 'NONE');
#464 = EDGE_CURVE ( 'NONE', #155, #258, #669, .T. ) ;
#465 = LINE ( 'NONE', #957, #217 ) ;
#466 = CARTESIAN_POINT ( 'NONE',  ( -27.79999999999999005, 18.00000000000001421, 0.000000000000000000 ) ) ;
#467 = ORIENTED_EDGE ( 'NONE', *, *, #143, .F. ) ;
#468 = VECTOR ( 'NONE', #726, 1000.000000000000000 ) ;
#469 = EDGE_LOOP ( 'NONE', ( #980, #461 ) ) ;
#470 = DIRECTION ( 'NONE',  ( 0.000000000000000000, 1.000000000000000000, 0.000000000000000000 ) ) ;
#471 = LINE ( 'NONE', #706, #323 ) ;
#472 = CARTESIAN_POINT ( 'NONE',  ( -23.54999999999999716, 10.00000000000001599, 1.600000000000000089 ) ) ;
#473 = VERTEX_POINT ( 'NONE', #403 ) ;
#474 = LINE ( 'NONE', #530, #818 ) ;
#475 = LINE ( 'NONE', #705, #6 ) ;
#476 = DIRECTION ( 'NONE',  ( 0.000000000000000000, 0.000000000000000000, -1.000000000000000000 ) ) ;
#477 = VECTOR ( 'NONE', #382, 1000.000000000000000 ) ;
#478 = DIRECTION ( 'NONE',  ( 1.000000000000000000, 0.000000000000000000, -1.084202172485504187E-16 ) ) ;
#479 = ORIENTED_EDGE ( 'NONE', *, *, #262, .T. ) ;
#480 = DIRECTION ( 'NONE',  ( 1.000000000000000000, 0.000000000000000000, -0.000000000000000000 ) ) ;
#481 = CARTESIAN_POINT ( 'NONE',  ( 18.79999999999999716, 1.600000000000000089, -4.200000000000000178 ) ) ;
#482 = LINE ( 'NONE', #734, #93 ) ;
#483 = EDGE_CURVE ( 'NONE', #299, #765, #48, .T. ) ;
#484 = ORIENTED_EDGE ( 'NONE', *, *, #464, .F. ) ;
#485 = DIRECTION ( 'NONE',  ( -0.000000000000000000, 1.000000000000000000, -0.000000000000000000 ) ) ;
#486 = ADVANCED_FACE ( 'NONE', ( #94 ), #1012, .F. ) ;
#487 = EDGE_LOOP ( 'NONE', ( #62, #173, #411, #559, #589, #815 ) ) ;
#488 = VECTOR ( 'NONE', #110, 1000.000000000000000 ) ;
#489 = ORIENTED_EDGE ( 'NONE', *, *, #640, .F. ) ;
#490 = LINE ( 'NONE', #591, #618 ) ;
#491 = CARTESIAN_POINT ( 'NONE',  ( -8.750000000000000000, 15.60000000000000320, -7.000000000000004441 ) ) ;
#492 = CARTESIAN_POINT ( 'NONE',  ( -18.80000000000000782, 5.599999999999999645, -2.899999999999998135 ) ) ;
#493 = LINE ( 'NONE', #472, #846 ) ;
#494 = VECTOR ( 'NONE', #876, 1000.000000000000000 ) ;
#495 = ORIENTED_EDGE ( 'NONE', *, *, #1061, .F. ) ;
#496 =( NAMED_UNIT ( * ) SI_UNIT ( $, .STERADIAN. ) SOLID_ANGLE_UNIT ( ) );
#497 = LINE ( 'NONE', #823, #410 ) ;
#498 = EDGE_CURVE ( 'NONE', #258, #794, #851, .T. ) ;
#499 = CARTESIAN_POINT ( 'NONE',  ( 23.30000000000000071, 6.099999999999999645, 0.000000000000000000 ) ) ;
#500 = AXIS2_PLACEMENT_3D ( 'NONE', #741, #526, #167 ) ;
#501 = DIRECTION ( 'NONE',  ( -0.000000000000000000, -1.000000000000000000, -0.000000000000000000 ) ) ;
#502 = VERTEX_POINT ( 'NONE', #181 ) ;
#503 = CARTESIAN_POINT ( 'NONE',  ( -14.80000000000000782, 5.599999999999999645, -0.2071067811865475727 ) ) ;
#504 = DIRECTION ( 'NONE',  ( -1.000000000000000000, 1.204669080539449097E-16, -0.000000000000000000 ) ) ;
#505 = ORIENTED_EDGE ( 'NONE', *, *, #215, .T. ) ;
#506 = PLANE ( 'NONE',  #553 ) ;
#507 = CARTESIAN_POINT ( 'NONE',  ( -22.80000000000000782, 5.599999999999999645, -0.2071067811865477115 ) ) ;
#508 = VECTOR ( 'NONE', #312, 1000.000000000000000 ) ;
#509 = ORIENTED_EDGE ( 'NONE', *, *, #593, .T. ) ;
#510 = DIRECTION ( 'NONE',  ( -1.000000000000000000, -1.927470528863119049E-16, 0.000000000000000000 ) ) ;
#511 = LINE ( 'NONE', #847, #1039 ) ;
#512 = AXIS2_PLACEMENT_3D ( 'NONE', #638, #329, #891 ) ;
#513 = ORIENTED_EDGE ( 'NONE', *, *, #1027, .F. ) ;
#514 = DIRECTION ( 'NONE',  ( 0.000000000000000000, 0.000000000000000000, 1.000000000000000000 ) ) ;
#515 = FACE_OUTER_BOUND ( 'NONE', #959, .T. ) ;
#516 = AXIS2_PLACEMENT_3D ( 'NONE', #104, #1008, #428 ) ;
#517 = EDGE_CURVE ( 'NONE', #697, #729, #261, .T. ) ;
#518 = ORIENTED_EDGE ( 'NONE', *, *, #358, .F. ) ;
#519 = CARTESIAN_POINT ( 'NONE',  ( -26.05000000000000071, 10.00000000000001599, 1.600000000000000089 ) ) ;
#520 = PRESENTATION_STYLE_ASSIGNMENT (( #186 ) ) ;
#521 = CARTESIAN_POINT ( 'NONE',  ( 8.750000000000000000, 1.600000000000000089, 1.600000000000000089 ) ) ;
#522 = ORIENTED_EDGE ( 'NONE', *, *, #96, .T. ) ;
#523 = VERTEX_POINT ( 'NONE', #767 ) ;
#524 = DIRECTION ( 'NONE',  ( -1.000000000000000000, 0.000000000000000000, 0.000000000000000000 ) ) ;
#525 = DIRECTION ( 'NONE',  ( 0.000000000000000000, -0.000000000000000000, -1.000000000000000000 ) ) ;
#526 = DIRECTION ( 'NONE',  ( -0.000000000000000000, 1.000000000000000000, -0.000000000000000000 ) ) ;
#527 = EDGE_CURVE ( 'NONE', #693, #805, #934, .T. ) ;
#528 = VERTEX_POINT ( 'NONE', #197 ) ;
#529 = ADVANCED_FACE ( 'NONE', ( #18 ), #925, .F. ) ;
#530 = CARTESIAN_POINT ( 'NONE',  ( -27.79999999999999005, 0.000000000000000000, 1.600000000000000089 ) ) ;
#531 = FACE_OUTER_BOUND ( 'NONE', #682, .T. ) ;
#532 = CARTESIAN_POINT ( 'NONE',  ( 28.80000000000001847, 9.356301545485782043E-15, 1.600000000000000089 ) ) ;
#533 = ORIENTED_EDGE ( 'NONE', *, *, #412, .F. ) ;
#534 = EDGE_LOOP ( 'NONE', ( #207, #201, #564, #939 ) ) ;
#535 = DIRECTION ( 'NONE',  ( 0.000000000000000000, 0.000000000000000000, 1.000000000000000000 ) ) ;
#536 = PLANE ( 'NONE',  #822 ) ;
#537 = AXIS2_PLACEMENT_3D ( 'NONE', #437, #360, #768 ) ;
#538 = ORIENTED_EDGE ( 'NONE', *, *, #373, .F. ) ;
#539 = ORIENTED_EDGE ( 'NONE', *, *, #905, .T. ) ;
#540 = CIRCLE ( 'NONE', #71, 1.250000000000001110 ) ;
#541 = DIRECTION ( 'NONE',  ( -0.000000000000000000, -1.000000000000000000, -0.000000000000000000 ) ) ;
#542 = CARTESIAN_POINT ( 'NONE',  ( -27.79999999999999005, 0.000000000000000000, 0.000000000000000000 ) ) ;
#543 = CIRCLE ( 'NONE', #790, 1.299999999999994715 ) ;
#544 = PRODUCT ( 'EtherWizRiscPC7kBackplate', 'EtherWizRiscPC7kBackplate', '', ( #408 ) ) ;
#545 = ADVANCED_FACE ( 'NONE', ( #921 ), #845, .F. ) ;
#546 = ORIENTED_EDGE ( 'NONE', *, *, #1070, .T. ) ;
#547 = VERTEX_POINT ( 'NONE', #175 ) ;
#548 = AXIS2_PLACEMENT_3D ( 'NONE', #607, #937, #106 ) ;
#549 = CARTESIAN_POINT ( 'NONE',  ( 18.79999999999999716, 5.599999999999999645, -4.200000000000000178 ) ) ;
#550 = FACE_OUTER_BOUND ( 'NONE', #233, .T. ) ;
#551 = ADVANCED_FACE ( 'NONE', ( #689 ), #506, .F. ) ;
#552 = ORIENTED_EDGE ( 'NONE', *, *, #52, .T. ) ;
#553 = AXIS2_PLACEMENT_3D ( 'NONE', #1004, #510, #10 ) ;
#554 = VERTEX_POINT ( 'NONE', #271 ) ;
#555 = LINE ( 'NONE', #617, #436 ) ;
#556 = CARTESIAN_POINT ( 'NONE',  ( -14.80000000000000959, 1.600000000000000089, -7.000000000000000000 ) ) ;
#557 = CARTESIAN_POINT ( 'NONE',  ( -22.80000000000000782, 5.599999999999999645, -0.5000000000000000000 ) ) ;
#558 = ORIENTED_EDGE ( 'NONE', *, *, #793, .T. ) ;
#559 = ORIENTED_EDGE ( 'NONE', *, *, #421, .T. ) ;
#560 = DIRECTION ( 'NONE',  ( -0.000000000000000000, -0.000000000000000000, -1.000000000000000000 ) ) ;
#561 = DIRECTION ( 'NONE',  ( 0.000000000000000000, 0.000000000000000000, -1.000000000000000000 ) ) ;
#562 = ADVANCED_FACE ( 'NONE', ( #929 ), #267, .F. ) ;
#563 = CARTESIAN_POINT ( 'NONE',  ( 14.29999999999999361, 1.600000000000000089, -0.5000000000000000000 ) ) ;
#564 = ORIENTED_EDGE ( 'NONE', *, *, #1037, .F. ) ;
#565 = EDGE_CURVE ( 'NONE', #897, #155, #592, .T. ) ;
#566 = DIRECTION ( 'NONE',  ( -0.000000000000000000, -1.000000000000000000, -0.000000000000000000 ) ) ;
#567 = CARTESIAN_POINT ( 'NONE',  ( -8.750000000000000000, 15.60000000000000320, 1.600000000000000089 ) ) ;
#568 = DIRECTION ( 'NONE',  ( -0.000000000000000000, -1.000000000000000000, -0.000000000000000000 ) ) ;
#569 = ORIENTED_EDGE ( 'NONE', *, *, #123, .F. ) ;
#570 = CARTESIAN_POINT ( 'NONE',  ( 8.750000000000000000, 1.600000000000000089, -7.000000000000004441 ) ) ;
#571 = DIRECTION ( 'NONE',  ( -0.000000000000000000, 1.000000000000000000, -0.000000000000000000 ) ) ;
#572 = DIRECTION ( 'NONE',  ( -1.000000000000000000, 0.000000000000000000, 2.478176394252582127E-16 ) ) ;
#573 = ORIENTED_EDGE ( 'NONE', *, *, #347, .F. ) ;
#574 = CIRCLE ( 'NONE', #15, 1.250000000000001110 ) ;
#575 = EDGE_LOOP ( 'NONE', ( #150, #581 ) ) ;
#576 = ADVANCED_FACE ( 'NONE', ( #278 ), #185, .F. ) ;
#577 = DIRECTION ( 'NONE',  ( 0.000000000000000000, 0.000000000000000000, 1.000000000000000000 ) ) ;
#578 = LINE ( 'NONE', #831, #608 ) ;
#579 = PLANE ( 'NONE',  #354 ) ;
#580 = DIRECTION ( 'NONE',  ( 0.000000000000000000, 0.000000000000000000, 1.000000000000000000 ) ) ;
#581 = ORIENTED_EDGE ( 'NONE', *, *, #259, .F. ) ;
#582 = LINE ( 'NONE', #345, #986 ) ;
#583 = DIRECTION ( 'NONE',  ( -0.000000000000000000, -1.000000000000000000, -0.000000000000000000 ) ) ;
#584 = VECTOR ( 'NONE', #422, 1000.000000000000000 ) ;
#585 = VERTEX_POINT ( 'NONE', #673 ) ;
#586 = LINE ( 'NONE', #909, #39 ) ;
#587 = DIRECTION ( 'NONE',  ( -0.000000000000000000, -1.000000000000000000, -0.000000000000000000 ) ) ;
#588 = CARTESIAN_POINT ( 'NONE',  ( 0.000000000000000000, 6.099999999999999645, -0.5000000000000000000 ) ) ;
#589 = ORIENTED_EDGE ( 'NONE', *, *, #674, .F. ) ;
#590 = AXIS2_PLACEMENT_3D ( 'NONE', #435, #350, #605 ) ;
#591 = CARTESIAN_POINT ( 'NONE',  ( 23.30000000000000071, 5.599999999999999645, 0.000000000000000000 ) ) ;
#592 = LINE ( 'NONE', #1019, #766 ) ;
#593 = EDGE_CURVE ( 'NONE', #554, #239, #840, .T. ) ;
#594 = DIRECTION ( 'NONE',  ( 1.000000000000000000, 0.000000000000000000, 0.000000000000000000 ) ) ;
#595 = EDGE_CURVE ( 'NONE', #282, #663, #935, .T. ) ;
#596 = VECTOR ( 'NONE', #628, 1000.000000000000000 ) ;
#597 = VERTEX_POINT ( 'NONE', #777 ) ;
#598 = VECTOR ( 'NONE', #972, 1000.000000000000000 ) ;
#599 = DIRECTION ( 'NONE',  ( 0.000000000000000000, 1.000000000000000000, 0.000000000000000000 ) ) ;
#600 = EDGE_CURVE ( 'NONE', #805, #693, #139, .T. ) ;
#601 = DIRECTION ( 'NONE',  ( 0.000000000000000000, -1.000000000000000000, 0.000000000000000000 ) ) ;
#602 = CARTESIAN_POINT ( 'NONE',  ( 0.000000000000000000, 6.099999999999999645, 0.000000000000000000 ) ) ;
#603 =( BOUNDED_CURVE ( )  B_SPLINE_CURVE ( 3, ( #499, #675, #660, #269 ),
 .UNSPECIFIED., .F., .F. ) 
 B_SPLINE_CURVE_WITH_KNOTS ( ( 4, 4 ),
 ( 1.570796326794896558, 3.141592653589793116 ),
 .UNSPECIFIED. ) 
 CURVE ( )  GEOMETRIC_REPRESENTATION_ITEM ( )  RATIONAL_B_SPLINE_CURVE ( ( 1.000000000000000000, 0.8047378541243649375, 0.8047378541243649375, 1.000000000000000000 ) ) 
 REPRESENTATION_ITEM ( '' )  );
#604 = ORIENTED_EDGE ( 'NONE', *, *, #655, .F. ) ;
#605 = DIRECTION ( 'NONE',  ( -1.000000000000000000, 0.000000000000000000, 0.000000000000000000 ) ) ;
#606 = CARTESIAN_POINT ( 'NONE',  ( -8.750000000000000000, 1.600000000000000089, 0.000000000000000000 ) ) ;
#607 = CARTESIAN_POINT ( 'NONE',  ( -23.30000000000000782, 0.000000000000000000, -0.5000000000000000000 ) ) ;
#608 = VECTOR ( 'NONE', #1073, 1000.000000000000000 ) ;
#609 = EDGE_LOOP ( 'NONE', ( #505, #716, #625, #451 ) ) ;
#610 = ADVANCED_FACE ( 'NONE', ( #446, #369 ), #1000, .F. ) ;
#611 = DIRECTION ( 'NONE',  ( 1.000000000000000000, 0.000000000000000000, 0.000000000000000000 ) ) ;
#612 = CIRCLE ( 'NONE', #850, 1.299999999999994715 ) ;
#613 = CARTESIAN_POINT ( 'NONE',  ( 28.80000000000001492, 18.00000000000001066, 1.600000000000000089 ) ) ;
#614 = CARTESIAN_POINT ( 'NONE',  ( -28.79999999999999361, 18.00000000000001421, 1.600000000000000089 ) ) ;
#615 = VERTEX_POINT ( 'NONE', #698 ) ;
#616 = ORIENTED_EDGE ( 'NONE', *, *, #938, .T. ) ;
#617 = CARTESIAN_POINT ( 'NONE',  ( 22.79999999999999361, 5.599999999999999645, -7.000000000000004441 ) ) ;
#618 = VECTOR ( 'NONE', #1068, 1000.000000000000000 ) ;
#619 =( NAMED_UNIT ( * ) PLANE_ANGLE_UNIT ( ) SI_UNIT ( $, .RADIAN. ) );
#620 = DIRECTION ( 'NONE',  ( -0.000000000000000000, -1.000000000000000000, -0.000000000000000000 ) ) ;
#621 = VERTEX_POINT ( 'NONE', #1045 ) ;
#622 = ORIENTED_EDGE ( 'NONE', *, *, #365, .T. ) ;
#623 = FACE_BOUND ( 'NONE', #462, .T. ) ;
#624 = DIRECTION ( 'NONE',  ( 0.000000000000000000, 0.000000000000000000, 1.000000000000000000 ) ) ;
#625 = ORIENTED_EDGE ( 'NONE', *, *, #331, .T. ) ;
#626 = ORIENTED_EDGE ( 'NONE', *, *, #565, .T. ) ;
#627 = CARTESIAN_POINT ( 'NONE',  ( 22.80000000000000071, 5.599999999999999645, -4.898587196589417759E-16 ) ) ;
#628 = DIRECTION ( 'NONE',  ( 1.000000000000000000, -0.000000000000000000, 3.196328145774586519E-16 ) ) ;
#629 = VECTOR ( 'NONE', #1030, 1000.000000000000000 ) ;
#630 = EDGE_LOOP ( 'NONE', ( #795, #397, #539, #108 ) ) ;
#631 = DIRECTION ( 'NONE',  ( -0.000000000000000000, 1.000000000000000000, 0.000000000000000000 ) ) ;
#632 = DIRECTION ( 'NONE',  ( 0.000000000000000000, 0.000000000000000000, -1.000000000000000000 ) ) ;
#633 = CARTESIAN_POINT ( 'NONE',  ( -23.30000000000000782, 6.099999999999999645, 0.000000000000000000 ) ) ;
#634 = EDGE_CURVE ( 'NONE', #324, #645, #555, .T. ) ;
#635 = ORIENTED_EDGE ( 'NONE', *, *, #763, .T. ) ;
#636 = CARTESIAN_POINT ( 'NONE',  ( -18.80000000000000782, 5.599999999999999645, -5.500000000000001776 ) ) ;
#637 = CARTESIAN_POINT ( 'NONE',  ( -18.80000000000000782, 1.600000000000000089, -2.899999999999998135 ) ) ;
#638 = CARTESIAN_POINT ( 'NONE',  ( -28.79999999999999361, 1.641026710857454456E-14, 1.600000000000000089 ) ) ;
#639 = EDGE_LOOP ( 'NONE', ( #330, #146 ) ) ;
#640 = EDGE_CURVE ( 'NONE', #1023, #554, #574, .T. ) ;
#641 = DIRECTION ( 'NONE',  ( -1.000000000000000000, -0.000000000000000000, 0.000000000000000000 ) ) ;
#642 = DIRECTION ( 'NONE',  ( 1.000000000000000000, 0.000000000000000000, 0.000000000000000000 ) ) ;
#643 = FACE_OUTER_BOUND ( 'NONE', #771, .T. ) ;
#644 = ADVANCED_FACE ( 'NONE', ( #45 ), #303, .F. ) ;
#645 = VERTEX_POINT ( 'NONE', #219 ) ;
#646 = AXIS2_PLACEMENT_3D ( 'NONE', #990, #649, #561 ) ;
#647 = EDGE_CURVE ( 'NONE', #794, #282, #474, .T. ) ;
#648 = CARTESIAN_POINT ( 'NONE',  ( 0.000000000000000000, 1.600000000000000089, 0.000000000000000000 ) ) ;
#649 = DIRECTION ( 'NONE',  ( 1.000000000000000000, 0.000000000000000000, 0.000000000000000000 ) ) ;
#650 = VECTOR ( 'NONE', #148, 1000.000000000000000 ) ;
#651 = ORIENTED_EDGE ( 'NONE', *, *, #793, .F. ) ;
#652 = ORIENTED_EDGE ( 'NONE', *, *, #130, .F. ) ;
#653 = LINE ( 'NONE', #915, #997 ) ;
#654 = LINE ( 'NONE', #567, #97 ) ;
#655 = EDGE_CURVE ( 'NONE', #994, #547, #801, .T. ) ;
#656 = LINE ( 'NONE', #661, #129 ) ;
#657 = ORIENTED_EDGE ( 'NONE', *, *, #147, .F. ) ;
#658 = DIRECTION ( 'NONE',  ( 0.000000000000000000, 1.000000000000000000, -0.000000000000000000 ) ) ;
#659 = CARTESIAN_POINT ( 'NONE',  ( -22.80000000000000782, 1.600000000000000089, 0.000000000000000000 ) ) ;
#660 = CARTESIAN_POINT ( 'NONE',  ( 22.80000000000000071, 5.599999999999999645, -0.2071067811865474895 ) ) ;
#661 = CARTESIAN_POINT ( 'NONE',  ( 22.79999999999999361, 1.600000000000000089, -7.000000000000004441 ) ) ;
#662 = AXIS2_PLACEMENT_3D ( 'NONE', #871, #14, #376 ) ;
#663 = VERTEX_POINT ( 'NONE', #951 ) ;
#664 = DIRECTION ( 'NONE',  ( 0.000000000000000000, 1.000000000000000000, 0.000000000000000000 ) ) ;
#665 = FACE_BOUND ( 'NONE', #469, .T. ) ;
#666 = DIRECTION ( 'NONE',  ( 1.000000000000000000, -0.000000000000000000, 0.000000000000000000 ) ) ;
#667 = VECTOR ( 'NONE', #49, 1000.000000000000000 ) ;
#668 = ORIENTED_EDGE ( 'NONE', *, *, #449, .T. ) ;
#669 = LINE ( 'NONE', #231, #133 ) ;
#670 = CYLINDRICAL_SURFACE ( 'NONE', #992, 0.5000000000000000000 ) ;
#671 = ORIENTED_EDGE ( 'NONE', *, *, #245, .T. ) ;
#672 = FACE_OUTER_BOUND ( 'NONE', #229, .T. ) ;
#673 = CARTESIAN_POINT ( 'NONE',  ( -18.80000000000000782, 5.599999999999999645, -5.500000000000001776 ) ) ;
#674 = EDGE_CURVE ( 'NONE', #621, #212, #152, .T. ) ;
#675 = CARTESIAN_POINT ( 'NONE',  ( 23.00710678118655039, 5.807106781186546662, -9.048568010295745966E-17 ) ) ;
#676 = ORIENTED_EDGE ( 'NONE', *, *, #1022, .F. ) ;
#677 = ADVANCED_FACE ( 'NONE', ( #747 ), #843, .F. ) ;
#678 = AXIS2_PLACEMENT_3D ( 'NONE', #1025, #452, #866 ) ;
#679 = DIRECTION ( 'NONE',  ( 0.000000000000000000, -1.000000000000000000, 0.000000000000000000 ) ) ;
#680 = DIRECTION ( 'NONE',  ( 0.000000000000000000, 1.000000000000000000, 0.000000000000000000 ) ) ;
#681 = CIRCLE ( 'NONE', #375, 1.300000000000001599 ) ;
#682 = EDGE_LOOP ( 'NONE', ( #966, #325, #1051, #195 ) ) ;
#683 = DIRECTION ( 'NONE',  ( -2.478176394252582127E-16, 0.000000000000000000, -1.000000000000000000 ) ) ;
#684 = CARTESIAN_POINT ( 'NONE',  ( 18.79999999999999716, 5.599999999999999645, -2.900000000000004796 ) ) ;
#685 = CARTESIAN_POINT ( 'NONE',  ( -18.80000000000000782, 5.599999999999999645, -4.200000000000000178 ) ) ;
#686 = VECTOR ( 'NONE', #335, 1000.000000000000000 ) ;
#687 = EDGE_CURVE ( 'NONE', #433, #1054, #788, .T. ) ;
#688 = EDGE_LOOP ( 'NONE', ( #356, #635, #206, #880 ) ) ;
#689 = FACE_OUTER_BOUND ( 'NONE', #67, .T. ) ;
#690 = CARTESIAN_POINT ( 'NONE',  ( 0.000000000000000000, 1.600000000000000089, 0.000000000000000000 ) ) ;
#691 = DIRECTION ( 'NONE',  ( -1.000000000000000000, -0.000000000000000000, 0.000000000000000000 ) ) ;
#692 = AXIS2_PLACEMENT_3D ( 'NONE', #89, #599, #514 ) ;
#693 = VERTEX_POINT ( 'NONE', #1 ) ;
#694 = CARTESIAN_POINT ( 'NONE',  ( -18.80000000000000782, 5.599999999999999645, -2.899999999999998135 ) ) ;
#695 = CARTESIAN_POINT ( 'NONE',  ( 23.30000000000000071, 1.600000000000000089, 0.000000000000000000 ) ) ;
#696 = ORIENTED_EDGE ( 'NONE', *, *, #1055, .T. ) ;
#697 = VERTEX_POINT ( 'NONE', #985 ) ;
#698 = CARTESIAN_POINT ( 'NONE',  ( 18.79999999999999716, 5.599999999999999645, -5.499999999999994671 ) ) ;
#699 =( GEOMETRIC_REPRESENTATION_CONTEXT ( 3 ) GLOBAL_UNCERTAINTY_ASSIGNED_CONTEXT ( ( #47 ) ) GLOBAL_UNIT_ASSIGNED_CONTEXT ( ( #164, #248, #496 ) ) REPRESENTATION_CONTEXT ( 'NONE', 'WORKASPACE' ) );
#700 = LINE ( 'NONE', #1031, #344 ) ;
#701 = CARTESIAN_POINT ( 'NONE',  ( 22.80000000000000071, 5.599999999999999645, -4.898587196589417759E-16 ) ) ;
#702 = ORIENTED_EDGE ( 'NONE', *, *, #17, .T. ) ;
#703 = EDGE_LOOP ( 'NONE', ( #103, #1033, #546, #848 ) ) ;
#704 = EDGE_CURVE ( 'NONE', #239, #724, #286, .T. ) ;
#705 = CARTESIAN_POINT ( 'NONE',  ( -27.79999999999999005, 18.00000000000001421, 1.600000000000000089 ) ) ;
#706 = CARTESIAN_POINT ( 'NONE',  ( 14.29999999999999361, 1.600000000000000089, 0.000000000000000000 ) ) ;
#707 = AXIS2_PLACEMENT_3D ( 'NONE', #481, #664, #894 ) ;
#708 = ORIENTED_EDGE ( 'NONE', *, *, #454, .T. ) ;
#709 = ADVANCED_FACE ( 'NONE', ( #90, #665, #328, #922, #998, #339 ), #579, .F. ) ;
#710 = CYLINDRICAL_SURFACE ( 'NONE', #809, 1.299999999999994715 ) ;
#711 = DIRECTION ( 'NONE',  ( 1.000000000000000000, 0.000000000000000000, 0.000000000000000000 ) ) ;
#712 = ORIENTED_EDGE ( 'NONE', *, *, #950, .F. ) ;
#713 = ORIENTED_EDGE ( 'NONE', *, *, #948, .T. ) ;
#714 = DIRECTION ( 'NONE',  ( -0.000000000000000000, 1.000000000000000000, -0.000000000000000000 ) ) ;
#715 = LINE ( 'NONE', #792, #596 ) ;
#716 = ORIENTED_EDGE ( 'NONE', *, *, #265, .T. ) ;
#717 = ADVANCED_FACE ( 'NONE', ( #257 ), #752, .F. ) ;
#718 = ORIENTED_EDGE ( 'NONE', *, *, #982, .T. ) ;
#719 = AXIS2_PLACEMENT_3D ( 'NONE', #340, #666, #274 ) ;
#720 = LINE ( 'NONE', #1035, #75 ) ;
#721 = LINE ( 'NONE', #399, #1062 ) ;
#722 = EDGE_CURVE ( 'NONE', #615, #816, #511, .T. ) ;
#723 = ORIENTED_EDGE ( 'NONE', *, *, #600, .T. ) ;
#724 = VERTEX_POINT ( 'NONE', #911 ) ;
#725 = DIRECTION ( 'NONE',  ( -0.000000000000000000, -0.000000000000000000, -1.000000000000000000 ) ) ;
#726 = DIRECTION ( 'NONE',  ( -0.000000000000000000, -0.000000000000000000, 1.000000000000000000 ) ) ;
#727 = AXIS2_PLACEMENT_3D ( 'NONE', #95, #77, #594 ) ;
#728 = EDGE_LOOP ( 'NONE', ( #622, #131, #1063, #443 ) ) ;
#729 = VERTEX_POINT ( 'NONE', #82 ) ;
#730 = VECTOR ( 'NONE', #301, 1000.000000000000000 ) ;
#731 = APPLICATION_PROTOCOL_DEFINITION ( 'draft international standard', 'automotive_design', 1998, #292 ) ;
#732 = CARTESIAN_POINT ( 'NONE',  ( -24.80000000000000071, 10.00000000000001599, 1.600000000000000089 ) ) ;
#733 = AXIS2_PLACEMENT_3D ( 'NONE', #73, #85, #414 ) ;
#734 = CARTESIAN_POINT ( 'NONE',  ( 22.79999999999999361, 5.599999999999999645, -7.000000000000004441 ) ) ;
#735 = ORIENTED_EDGE ( 'NONE', *, *, #265, .F. ) ;
#736 = VECTOR ( 'NONE', #620, 1000.000000000000000 ) ;
#737 = EDGE_CURVE ( 'NONE', #806, #258, #420, .T. ) ;
#738 = PLANE ( 'NONE',  #943 ) ;
#739 = DIRECTION ( 'NONE',  ( 0.000000000000000000, 0.000000000000000000, -1.000000000000000000 ) ) ;
#740 = CARTESIAN_POINT ( 'NONE',  ( 0.000000000000000000, 0.000000000000000000, 0.000000000000000000 ) ) ;
#741 = CARTESIAN_POINT ( 'NONE',  ( -23.30000000000000782, 1.600000000000000089, -0.5000000000000000000 ) ) ;
#742 = ORIENTED_EDGE ( 'NONE', *, *, #76, .T. ) ;
#743 = CARTESIAN_POINT ( 'NONE',  ( -22.80000000000000782, 1.600000000000000089, 0.000000000000000000 ) ) ;
#744 = AXIS2_PLACEMENT_3D ( 'NONE', #13, #30, #683 ) ;
#745 = ADVANCED_FACE ( 'NONE', ( #346 ), #670, .F. ) ;
#746 = LINE ( 'NONE', #250, #842 ) ;
#747 = FACE_OUTER_BOUND ( 'NONE', #750, .T. ) ;
#748 = CARTESIAN_POINT ( 'NONE',  ( 14.79999999999999361, 1.600000000000000089, -0.5000000000000001110 ) ) ;
#749 = AXIS2_PLACEMENT_3D ( 'NONE', #7, #572, #177 ) ;
#750 = EDGE_LOOP ( 'NONE', ( #315, #735, #400, #44 ) ) ;
#751 = CARTESIAN_POINT ( 'NONE',  ( 8.750000000000000000, 15.60000000000000320, 1.600000000000000089 ) ) ;
#752 = PLANE ( 'NONE',  #749 ) ;
#753 = PRODUCT_DEFINITION ( 'UNKNOWN', '', #272, #393 ) ;
#754 = AXIS2_PLACEMENT_3D ( 'NONE', #627, #968, #41 ) ;
#755 = ORIENTED_EDGE ( 'NONE', *, *, #389, .F. ) ;
#756 = EDGE_CURVE ( 'NONE', #585, #844, #2, .T. ) ;
#757 = CARTESIAN_POINT ( 'NONE',  ( 23.30000000000000071, 5.599999999999999645, -0.5000000000000000000 ) ) ;
#758 = DIRECTION ( 'NONE',  ( -0.000000000000000000, -0.000000000000000000, -1.000000000000000000 ) ) ;
#759 = CARTESIAN_POINT ( 'NONE',  ( -23.30000000000000782, 6.099999999999999645, 0.000000000000000000 ) ) ;
#760 = EDGE_CURVE ( 'NONE', #320, #240, #864, .T. ) ;
#761 = ORIENTED_EDGE ( 'NONE', *, *, #157, .F. ) ;
#762 = CARTESIAN_POINT ( 'NONE',  ( -27.79999999999999005, 18.00000000000001421, 0.000000000000000000 ) ) ;
#763 = EDGE_CURVE ( 'NONE', #844, #299, #160, .T. ) ;
#764 = CARTESIAN_POINT ( 'NONE',  ( 14.79999999999999361, 5.599999999999999645, -0.5000000000000000000 ) ) ;
#765 = VERTEX_POINT ( 'NONE', #11 ) ;
#766 = VECTOR ( 'NONE', #99, 1000.000000000000000 ) ;
#767 = CARTESIAN_POINT ( 'NONE',  ( 23.55000000000000071, 10.00000000000001599, 0.000000000000000000 ) ) ;
#768 = DIRECTION ( 'NONE',  ( 0.000000000000000000, 0.000000000000000000, 1.000000000000000000 ) ) ;
#769 = DIRECTION ( 'NONE',  ( 0.000000000000000000, 1.000000000000000000, 0.000000000000000000 ) ) ;
#770 = EDGE_CURVE ( 'NONE', #821, #211, #603, .T. ) ;
#771 = EDGE_LOOP ( 'NONE', ( #439, #291, #407, #372 ) ) ;
#772 = CARTESIAN_POINT ( 'NONE',  ( -28.79999999999999361, 1.641026710857454456E-14, 1.600000000000000089 ) ) ;
#773 = DIRECTION ( 'NONE',  ( 0.000000000000000000, -0.000000000000000000, 1.000000000000000000 ) ) ;
#774 = DIRECTION ( 'NONE',  ( -1.204669080539449097E-16, -1.000000000000000000, 0.000000000000000000 ) ) ;
#775 = AXIS2_PLACEMENT_3D ( 'NONE', #112, #83, #1071 ) ;
#776 = ORIENTED_EDGE ( 'NONE', *, *, #107, .F. ) ;
#777 = CARTESIAN_POINT ( 'NONE',  ( 14.79999999999999183, 1.600000000000000089, -7.000000000000003553 ) ) ;
#778 = CARTESIAN_POINT ( 'NONE',  ( 0.000000000000000000, 5.599999999999999645, 0.000000000000000000 ) ) ;
#779 = LINE ( 'NONE', #187, #444 ) ;
#780 = ORIENTED_EDGE ( 'NONE', *, *, #655, .T. ) ;
#781 = ORIENTED_EDGE ( 'NONE', *, *, #839, .T. ) ;
#782 = VECTOR ( 'NONE', #824, 1000.000000000000000 ) ;
#783 = PLANE ( 'NONE',  #194 ) ;
#784 = CARTESIAN_POINT ( 'NONE',  ( -18.80000000000000782, 5.599999999999999645, -4.200000000000000178 ) ) ;
#785 = VECTOR ( 'NONE', #571, 1000.000000000000000 ) ;
#786 = PRODUCT_RELATED_PRODUCT_CATEGORY ( 'part', '', ( #544 ) ) ;
#787 = ORIENTED_EDGE ( 'NONE', *, *, #988, .T. ) ;
#788 =( BOUNDED_CURVE ( )  B_SPLINE_CURVE ( 3, ( #334, #918, #244, #764 ),
 .UNSPECIFIED., .F., .T. ) 
 B_SPLINE_CURVE_WITH_KNOTS ( ( 4, 4 ),
 ( 4.712388980384689674, 6.283185307179586232 ),
 .UNSPECIFIED. ) 
 CURVE ( )  GEOMETRIC_REPRESENTATION_ITEM ( )  RATIONAL_B_SPLINE_CURVE ( ( 1.000000000000000000, 0.8047378541243649375, 0.8047378541243649375, 1.000000000000000000 ) ) 
 REPRESENTATION_ITEM ( '' )  );
#789 = ORIENTED_EDGE ( 'NONE', *, *, #358, .T. ) ;
#790 = AXIS2_PLACEMENT_3D ( 'NONE', #802, #127, #153 ) ;
#791 = LINE ( 'NONE', #813, #667 ) ;
#792 = CARTESIAN_POINT ( 'NONE',  ( 22.80000000000000071, 1.600000000000000089, -4.898587196589417759E-16 ) ) ;
#793 = EDGE_CURVE ( 'NONE', #663, #897, #351, .T. ) ;
#794 = VERTEX_POINT ( 'NONE', #273 ) ;
#795 = ORIENTED_EDGE ( 'NONE', *, *, #763, .F. ) ;
#796 = LINE ( 'NONE', #300, #494 ) ;
#797 = DIRECTION ( 'NONE',  ( 0.000000000000000000, 0.000000000000000000, 1.000000000000000000 ) ) ;
#798 = VECTOR ( 'NONE', #679, 1000.000000000000000 ) ;
#799 = ORIENTED_EDGE ( 'NONE', *, *, #190, .F. ) ;
#800 = EDGE_LOOP ( 'NONE', ( #696, #1066, #1044, #954 ) ) ;
#801 = LINE ( 'NONE', #114, #629 ) ;
#802 = CARTESIAN_POINT ( 'NONE',  ( 18.79999999999999716, 5.599999999999999645, -4.200000000000000178 ) ) ;
#803 = DIRECTION ( 'NONE',  ( 0.000000000000000000, 0.000000000000000000, -1.000000000000000000 ) ) ;
#804 = ADVANCED_FACE ( 'NONE', ( #192, #623 ), #19, .T. ) ;
#805 = VERTEX_POINT ( 'NONE', #105 ) ;
#806 = VERTEX_POINT ( 'NONE', #930 ) ;
#807 = LINE ( 'NONE', #636, #21 ) ;
#808 = CARTESIAN_POINT ( 'NONE',  ( -26.05000000000000071, 10.00000000000001599, 0.000000000000000000 ) ) ;
#809 = AXIS2_PLACEMENT_3D ( 'NONE', #549, #541, #632 ) ;
#810 = EDGE_LOOP ( 'NONE', ( #484, #40, #781, #34 ) ) ;
#811 = ORIENTED_EDGE ( 'NONE', *, *, #1070, .F. ) ;
#812 = MANIFOLD_SOLID_BREP ( 'MakeItFitReality', #238 ) ;
#813 = CARTESIAN_POINT ( 'NONE',  ( -14.80000000000000782, 5.599999999999999645, -0.5000000000000000000 ) ) ;
#814 = DIRECTION ( 'NONE',  ( -0.000000000000000000, -1.000000000000000000, -0.000000000000000000 ) ) ;
#815 = ORIENTED_EDGE ( 'NONE', *, *, #107, .T. ) ;
#816 = VERTEX_POINT ( 'NONE', #120 ) ;
#817 = LINE ( 'NONE', #81, #180 ) ;
#818 = VECTOR ( 'NONE', #865, 1000.000000000000000 ) ;
#819 = FACE_OUTER_BOUND ( 'NONE', #456, .T. ) ;
#820 = EDGE_CURVE ( 'NONE', #523, #981, #53, .T. ) ;
#821 = VERTEX_POINT ( 'NONE', #447 ) ;
#822 = AXIS2_PLACEMENT_3D ( 'NONE', #542, #642, #476 ) ;
#823 = CARTESIAN_POINT ( 'NONE',  ( 14.79999999999999361, 5.599999999999999645, -0.5000000000000001110 ) ) ;
#824 = DIRECTION ( 'NONE',  ( -0.000000000000000000, -1.000000000000000000, -0.000000000000000000 ) ) ;
#825 = CIRCLE ( 'NONE', #290, 1.299999999999994715 ) ;
#826 = DIRECTION ( 'NONE',  ( -1.000000000000000000, 0.000000000000000000, 1.084202172485504187E-16 ) ) ;
#827 = ADVANCED_FACE ( 'NONE', ( #355, #288 ), #783, .T. ) ;
#828 = ORIENTED_EDGE ( 'NONE', *, *, #932, .T. ) ;
#829 = CIRCLE ( 'NONE', #965, 0.5000000000000000000 ) ;
#830 = CARTESIAN_POINT ( 'NONE',  ( -8.750000000000000000, 15.60000000000000320, -7.000000000000004441 ) ) ;
#831 = CARTESIAN_POINT ( 'NONE',  ( 8.750000000000000000, 15.60000000000000320, -7.000000000000004441 ) ) ;
#832 = DIRECTION ( 'NONE',  ( 0.000000000000000000, 0.000000000000000000, -1.000000000000000000 ) ) ;
#833 = PLANE ( 'NONE',  #719 ) ;
#834 = EDGE_LOOP ( 'NONE', ( #401, #787, #518, #708 ) ) ;
#835 = FACE_OUTER_BOUND ( 'NONE', #57, .T. ) ;
#836 = CARTESIAN_POINT ( 'NONE',  ( 14.29999999999999361, 0.000000000000000000, -0.5000000000000000000 ) ) ;
#837 = EDGE_CURVE ( 'NONE', #72, #151, #69, .T. ) ;
#838 = VERTEX_POINT ( 'NONE', #606 ) ;
#839 = EDGE_CURVE ( 'NONE', #897, #806, #204, .T. ) ;
#840 = LINE ( 'NONE', #519, #102 ) ;
#841 = ADVANCED_FACE ( 'NONE', ( #284 ), #370, .F. ) ;
#842 = VECTOR ( 'NONE', #424, 1000.000000000000000 ) ;
#843 = CYLINDRICAL_SURFACE ( 'NONE', #249, 0.5000000000000000000 ) ;
#844 = VERTEX_POINT ( 'NONE', #694 ) ;
#845 = PLANE ( 'NONE',  #744 ) ;
#846 = VECTOR ( 'NONE', #900, 1000.000000000000000 ) ;
#847 = CARTESIAN_POINT ( 'NONE',  ( 18.79999999999999716, 5.599999999999999645, -5.499999999999994671 ) ) ;
#848 = ORIENTED_EDGE ( 'NONE', *, *, #61, .T. ) ;
#849 = ADVANCED_FACE ( 'NONE', ( #531 ), #294, .F. ) ;
#850 = AXIS2_PLACEMENT_3D ( 'NONE', #115, #1015, #535 ) ;
#851 = LINE ( 'NONE', #762, #798 ) ;
#852 = LINE ( 'NONE', #416, #686 ) ;
#853 = ORIENTED_EDGE ( 'NONE', *, *, #1027, .T. ) ;
#854 = VECTOR ( 'NONE', #504, 1000.000000000000000 ) ;
#855 = DIRECTION ( 'NONE',  ( -0.000000000000000000, -0.000000000000000000, -1.000000000000000000 ) ) ;
#856 =( NAMED_UNIT ( * ) SI_UNIT ( $, .STERADIAN. ) SOLID_ANGLE_UNIT ( ) );
#857 = LINE ( 'NONE', #361, #736 ) ;
#858 = VERTEX_POINT ( 'NONE', #36 ) ;
#859 = EDGE_LOOP ( 'NONE', ( #1028, #573, #51, #799 ) ) ;
#860 = DIRECTION ( 'NONE',  ( 0.000000000000000000, -1.000000000000000000, 0.000000000000000000 ) ) ;
#861 = SURFACE_STYLE_FILL_AREA ( #952 ) ;
#862 = DIRECTION ( 'NONE',  ( 0.000000000000000000, 0.000000000000000000, -1.000000000000000000 ) ) ;
#863 = VERTEX_POINT ( 'NONE', #684 ) ;
#864 =( BOUNDED_CURVE ( )  B_SPLINE_CURVE ( 3, ( #263, #507, #166, #759 ),
 .UNSPECIFIED., .F., .F. ) 
 B_SPLINE_CURVE_WITH_KNOTS ( ( 4, 4 ),
 ( 3.141592653589793116, 4.712388980384689674 ),
 .UNSPECIFIED. ) 
 CURVE ( )  GEOMETRIC_REPRESENTATION_ITEM ( )  RATIONAL_B_SPLINE_CURVE ( ( 1.000000000000000000, 0.8047378541243649375, 0.8047378541243649375, 1.000000000000000000 ) ) 
 REPRESENTATION_ITEM ( '' )  );
#865 = DIRECTION ( 'NONE',  ( -0.000000000000000000, -0.000000000000000000, 1.000000000000000000 ) ) ;
#866 = DIRECTION ( 'NONE',  ( 0.000000000000000000, 0.000000000000000000, 1.000000000000000000 ) ) ;
#867 = LINE ( 'NONE', #701, #38 ) ;
#868 = EDGE_CURVE ( 'NONE', #816, #368, #612, .T. ) ;
#869 = EDGE_CURVE ( 'NONE', #450, #838, #700, .T. ) ;
#870 = EDGE_LOOP ( 'NONE', ( #235, #780, #533, #247 ) ) ;
#871 = CARTESIAN_POINT ( 'NONE',  ( 24.80000000000000426, 10.00000000000001599, 0.000000000000000000 ) ) ;
#872 = DIRECTION ( 'NONE',  ( 0.000000000000000000, -0.000000000000000000, -1.000000000000000000 ) ) ;
#873 = EDGE_CURVE ( 'NONE', #729, #875, #796, .T. ) ;
#874 = CIRCLE ( 'NONE', #216, 1.250000000000001110 ) ;
#875 = VERTEX_POINT ( 'NONE', #556 ) ;
#876 = DIRECTION ( 'NONE',  ( -2.478176394252581634E-16, 0.000000000000000000, -1.000000000000000000 ) ) ;
#877 = DIRECTION ( 'NONE',  ( 0.000000000000000000, 0.000000000000000000, 1.000000000000000000 ) ) ;
#878 = VECTOR ( 'NONE', #1021, 1000.000000000000000 ) ;
#879 = ORIENTED_EDGE ( 'NONE', *, *, #347, .T. ) ;
#880 = ORIENTED_EDGE ( 'NONE', *, *, #905, .F. ) ;
#881 = ADVANCED_FACE ( 'NONE', ( #311 ), #710, .F. ) ;
#882 = CARTESIAN_POINT ( 'NONE',  ( 26.05000000000000426, 10.00000000000001599, 0.000000000000000000 ) ) ;
#883 = FACE_OUTER_BOUND ( 'NONE', #246, .T. ) ;
#884 = CIRCLE ( 'NONE', #707, 1.299999999999994715 ) ;
#885 = EDGE_LOOP ( 'NONE', ( #1034, #668 ) ) ;
#886 = ORIENTED_EDGE ( 'NONE', *, *, #1061, .T. ) ;
#887 = DIRECTION ( 'NONE',  ( 0.000000000000000000, 1.000000000000000000, 0.000000000000000000 ) ) ;
#888 = DIRECTION ( 'NONE',  ( 0.000000000000000000, -0.000000000000000000, -1.000000000000000000 ) ) ;
#889 = DIRECTION ( 'NONE',  ( 0.000000000000000000, -1.000000000000000000, 0.000000000000000000 ) ) ;
#890 = AXIS2_PLACEMENT_3D ( 'NONE', #119, #631, #962 ) ;
#891 = DIRECTION ( 'NONE',  ( -1.000000000000000000, 1.224646799147354686E-16, 0.000000000000000000 ) ) ;
#892 = EDGE_LOOP ( 'NONE', ( #886, #908, #396, #1017 ) ) ;
#893 = LINE ( 'NONE', #648, #378 ) ;
#894 = DIRECTION ( 'NONE',  ( 0.000000000000000000, 0.000000000000000000, 1.000000000000000000 ) ) ;
#895 = PRODUCT_DEFINITION_SHAPE ( 'NONE', 'NONE',  #753 ) ;
#896 = EDGE_LOOP ( 'NONE', ( #755, #604, #56, #652 ) ) ;
#897 = VERTEX_POINT ( 'NONE', #213 ) ;
#898 = CARTESIAN_POINT ( 'NONE',  ( -22.80000000000000782, 5.599999999999999645, -7.000000000000000000 ) ) ;
#899 = CARTESIAN_POINT ( 'NONE',  ( -22.80000000000000782, 5.599999999999999645, -7.000000000000000000 ) ) ;
#900 = DIRECTION ( 'NONE',  ( -0.000000000000000000, -0.000000000000000000, -1.000000000000000000 ) ) ;
#901 = EDGE_LOOP ( 'NONE', ( #853, #342, #84, #309 ) ) ;
#902 = CYLINDRICAL_SURFACE ( 'NONE', #359, 0.5000000000000000000 ) ;
#903 = DIRECTION ( 'NONE',  ( 1.000000000000000000, 0.000000000000000000, -0.000000000000000000 ) ) ;
#904 = DIRECTION ( 'NONE',  ( 0.000000000000000000, 0.000000000000000000, 1.000000000000000000 ) ) ;
#905 = EDGE_CURVE ( 'NONE', #585, #765, #807, .T. ) ;
#906 = AXIS2_PLACEMENT_3D ( 'NONE', #364, #283, #611 ) ;
#907 = ORIENTED_EDGE ( 'NONE', *, *, #26, .F. ) ;
#908 = ORIENTED_EDGE ( 'NONE', *, *, #674, .T. ) ;
#909 = CARTESIAN_POINT ( 'NONE',  ( -22.80000000000000782, 1.600000000000000089, -7.000000000000000000 ) ) ;
#910 = DIRECTION ( 'NONE',  ( 0.000000000000000000, 0.000000000000000000, 1.000000000000000000 ) ) ;
#911 = CARTESIAN_POINT ( 'NONE',  ( -23.54999999999999716, 10.00000000000001599, 0.000000000000000000 ) ) ;
#912 = LINE ( 'NONE', #371, #584 ) ;
#913 = ORIENTED_EDGE ( 'NONE', *, *, #412, .T. ) ;
#914 = AXIS2_PLACEMENT_3D ( 'NONE', #3, #769, #580 ) ;
#915 = CARTESIAN_POINT ( 'NONE',  ( -23.30000000000000782, 1.600000000000000089, 0.000000000000000000 ) ) ;
#916 = CARTESIAN_POINT ( 'NONE',  ( 8.750000000000000000, 1.600000000000000089, 0.000000000000000000 ) ) ;
#917 = ADVANCED_FACE ( 'NONE', ( #963 ), #1052, .F. ) ;
#918 = CARTESIAN_POINT ( 'NONE',  ( 14.59289321881344570, 5.807106781186546662, -5.461660581177147369E-17 ) ) ;
#919 = EDGE_LOOP ( 'NONE', ( #367, #479, #1002, #1060 ) ) ;
#920 = EDGE_CURVE ( 'NONE', #528, #450, #141, .T. ) ;
#921 = FACE_OUTER_BOUND ( 'NONE', #404, .T. ) ;
#922 = FACE_BOUND ( 'NONE', #336, .T. ) ;
#923 = AXIS2_PLACEMENT_3D ( 'NONE', #441, #758, #524 ) ;
#924 = ORIENTED_EDGE ( 'NONE', *, *, #65, .T. ) ;
#925 = CYLINDRICAL_SURFACE ( 'NONE', #1018, 1.300000000000001599 ) ;
#926 = VECTOR ( 'NONE', #460, 1000.000000000000000 ) ;
#927 = CARTESIAN_POINT ( 'NONE',  ( -18.80000000000000782, 5.599999999999999645, -4.200000000000000178 ) ) ;
#928 = VERTEX_POINT ( 'NONE', #321 ) ;
#929 = FACE_OUTER_BOUND ( 'NONE', #314, .T. ) ;
#930 = CARTESIAN_POINT ( 'NONE',  ( 28.80000000000001492, 18.00000000000001066, 0.000000000000000000 ) ) ;
#931 = DIRECTION ( 'NONE',  ( 1.000000000000000000, -1.204669080539449097E-16, 0.000000000000000000 ) ) ;
#932 = EDGE_CURVE ( 'NONE', #928, #223, #1058, .T. ) ;
#933 = ORIENTED_EDGE ( 'NONE', *, *, #498, .F. ) ;
#934 = CIRCLE ( 'NONE', #516, 1.250000000000001110 ) ;
#935 = LINE ( 'NONE', #772, #488 ) ;
#936 = SURFACE_SIDE_STYLE ('',( #861 ) ) ;
#937 = DIRECTION ( 'NONE',  ( 0.000000000000000000, 1.000000000000000000, -0.000000000000000000 ) ) ;
#938 = EDGE_CURVE ( 'NONE', #615, #863, #543, .T. ) ;
#939 = ORIENTED_EDGE ( 'NONE', *, *, #960, .F. ) ;
#940 = AXIS2_PLACEMENT_3D ( 'NONE', #927, #1001, #904 ) ;
#941 = CARTESIAN_POINT ( 'NONE',  ( -14.80000000000000782, 1.599999999999999867, -0.4999999999999998890 ) ) ;
#942 = CYLINDRICAL_SURFACE ( 'NONE', #313, 1.300000000000001599 ) ;
#943 = AXIS2_PLACEMENT_3D ( 'NONE', #830, #983, #326 ) ;
#944 = ORIENTED_EDGE ( 'NONE', *, *, #298, .F. ) ;
#945 =( BOUNDED_CURVE ( )  B_SPLINE_CURVE ( 3, ( #1059, #503, #409, #327 ),
 .UNSPECIFIED., .F., .T. ) 
 B_SPLINE_CURVE_WITH_KNOTS ( ( 4, 4 ),
 ( 0.000000000000000000, 1.570796326794896558 ),
 .UNSPECIFIED. ) 
 CURVE ( )  GEOMETRIC_REPRESENTATION_ITEM ( )  RATIONAL_B_SPLINE_CURVE ( ( 1.000000000000000000, 0.8047378541243649375, 0.8047378541243649375, 1.000000000000000000 ) ) 
 REPRESENTATION_ITEM ( '' )  );
#946 = DIRECTION ( 'NONE',  ( 0.000000000000000000, 1.000000000000000000, 0.000000000000000000 ) ) ;
#947 = FACE_OUTER_BOUND ( 'NONE', #834, .T. ) ;
#948 = EDGE_CURVE ( 'NONE', #697, #928, #316, .T. ) ;
#949 = EDGE_LOOP ( 'NONE', ( #513, #423, #558, #626 ) ) ;
#950 = EDGE_CURVE ( 'NONE', #693, #523, #465, .T. ) ;
#951 = CARTESIAN_POINT ( 'NONE',  ( 28.80000000000001847, 9.356301545485782043E-15, 1.600000000000000089 ) ) ;
#952 = FILL_AREA_STYLE ('',( #198 ) ) ;
#953 = FACE_BOUND ( 'NONE', #575, .T. ) ;
#954 = ORIENTED_EDGE ( 'NONE', *, *, #147, .T. ) ;
#955 = CARTESIAN_POINT ( 'NONE',  ( -24.80000000000000071, 10.00000000000001599, 1.600000000000000089 ) ) ;
#956 = VECTOR ( 'NONE', #87, 1000.000000000000000 ) ;
#957 = CARTESIAN_POINT ( 'NONE',  ( 23.55000000000000071, 10.00000000000001599, 1.600000000000000089 ) ) ;
#958 = CARTESIAN_POINT ( 'NONE',  ( -24.80000000000000071, 10.00000000000001599, 0.000000000000000000 ) ) ;
#959 = EDGE_LOOP ( 'NONE', ( #776, #495, #218, #381 ) ) ;
#960 = EDGE_CURVE ( 'NONE', #838, #457, #893, .T. ) ;
#961 = ORIENTED_EDGE ( 'NONE', *, *, #215, .F. ) ;
#962 = DIRECTION ( 'NONE',  ( 0.000000000000000000, -0.000000000000000000, 1.000000000000000000 ) ) ;
#963 = FACE_OUTER_BOUND ( 'NONE', #919, .T. ) ;
#964 = DIRECTION ( 'NONE',  ( 0.000000000000000000, 1.000000000000000000, 0.000000000000000000 ) ) ;
#965 = AXIS2_PLACEMENT_3D ( 'NONE', #563, #307, #70 ) ;
#966 = ORIENTED_EDGE ( 'NONE', *, *, #760, .T. ) ;
#967 = ORIENTED_EDGE ( 'NONE', *, *, #162, .F. ) ;
#968 = DIRECTION ( 'NONE',  ( -1.000000000000000000, 0.000000000000000000, 9.912705577010320619E-16 ) ) ;
#969 = LINE ( 'NONE', #532, #1009 ) ;
#970 = CARTESIAN_POINT ( 'NONE',  ( 22.79999999999999361, 5.599999999999999645, -7.000000000000004441 ) ) ;
#971 = ORIENTED_EDGE ( 'NONE', *, *, #704, .F. ) ;
#972 = DIRECTION ( 'NONE',  ( -2.478176394252581634E-16, 0.000000000000000000, -1.000000000000000000 ) ) ;
#973 = CARTESIAN_POINT ( 'NONE',  ( 0.000000000000000000, 0.000000000000000000, 1.600000000000000089 ) ) ;
#974 = PLANE ( 'NONE',  #222 ) ;
#975 = AXIS2_PLACEMENT_3D ( 'NONE', #37, #453, #872 ) ;
#976 = ORIENTED_EDGE ( 'NONE', *, *, #950, .T. ) ;
#977 = CARTESIAN_POINT ( 'NONE',  ( -23.54999999999999716, 10.00000000000001599, 1.600000000000000089 ) ) ;
#978 = DIRECTION ( 'NONE',  ( 0.000000000000000000, 1.000000000000000000, -0.000000000000000000 ) ) ;
#979 = AXIS2_PLACEMENT_3D ( 'NONE', #1003, #68, #241 ) ;
#980 = ORIENTED_EDGE ( 'NONE', *, *, #820, .T. ) ;
#981 = VERTEX_POINT ( 'NONE', #882 ) ;
#982 = EDGE_CURVE ( 'NONE', #320, #697, #791, .T. ) ;
#983 = DIRECTION ( 'NONE',  ( -1.000000000000000000, 0.000000000000000000, -0.000000000000000000 ) ) ;
#984 = FACE_OUTER_BOUND ( 'NONE', #800, .T. ) ;
#985 = CARTESIAN_POINT ( 'NONE',  ( -14.80000000000000782, 5.599999999999999645, -0.5000000000000000000 ) ) ;
#986 = VECTOR ( 'NONE', #814, 1000.000000000000000 ) ;
#987 = DIRECTION ( 'NONE',  ( 1.084202172485504187E-16, -0.000000000000000000, 1.000000000000000000 ) ) ;
#988 = EDGE_CURVE ( 'NONE', #385, #320, #226, .T. ) ;
#989 = ORIENTED_EDGE ( 'NONE', *, *, #873, .T. ) ;
#990 = CARTESIAN_POINT ( 'NONE',  ( 8.750000000000000000, 15.60000000000000320, -7.000000000000004441 ) ) ;
#991 = CARTESIAN_POINT ( 'NONE',  ( 28.80000000000001492, 18.00000000000001066, 1.600000000000000089 ) ) ;
#992 = AXIS2_PLACEMENT_3D ( 'NONE', #836, #432, #429 ) ;
#993 = LINE ( 'NONE', #253, #1049 ) ;
#994 = VERTEX_POINT ( 'NONE', #236 ) ;
#995 = ADVANCED_FACE ( 'NONE', ( #387 ), #398, .F. ) ;
#996 = CARTESIAN_POINT ( 'NONE',  ( -8.750000000000000000, 15.60000000000000320, 0.000000000000000000 ) ) ;
#997 = VECTOR ( 'NONE', #158, 1000.000000000000000 ) ;
#998 = FACE_BOUND ( 'NONE', #703, .T. ) ;
#999 = EDGE_LOOP ( 'NONE', ( #1072, #1043, #98, #712 ) ) ;
#1000 = PLANE ( 'NONE',  #210 ) ;
#1001 = DIRECTION ( 'NONE',  ( 0.000000000000000000, 1.000000000000000000, 0.000000000000000000 ) ) ;
#1002 = ORIENTED_EDGE ( 'NONE', *, *, #1024, .T. ) ;
#1003 = CARTESIAN_POINT ( 'NONE',  ( -24.80000000000000071, 10.00000000000001599, 1.600000000000000089 ) ) ;
#1004 = CARTESIAN_POINT ( 'NONE',  ( 28.80000000000001492, 18.00000000000001066, 1.600000000000000089 ) ) ;
#1005 = DIRECTION ( 'NONE',  ( 0.000000000000000000, 0.000000000000000000, 1.000000000000000000 ) ) ;
#1006 = VECTOR ( 'NONE', #31, 1000.000000000000000 ) ;
#1007 = ORIENTED_EDGE ( 'NONE', *, *, #440, .F. ) ;
#1008 = DIRECTION ( 'NONE',  ( 0.000000000000000000, 0.000000000000000000, 1.000000000000000000 ) ) ;
#1009 = VECTOR ( 'NONE', #377, 1000.000000000000000 ) ;
#1010 = LINE ( 'NONE', #366, #24 ) ;
#1011 = ORIENTED_EDGE ( 'NONE', *, *, #46, .T. ) ;
#1012 = CYLINDRICAL_SURFACE ( 'NONE', #243, 1.250000000000001110 ) ;
#1013 = EDGE_CURVE ( 'NONE', #863, #615, #825, .T. ) ;
#1014 = VECTOR ( 'NONE', #306, 1000.000000000000000 ) ;
#1015 = DIRECTION ( 'NONE',  ( 0.000000000000000000, 1.000000000000000000, 0.000000000000000000 ) ) ;
#1016 = CARTESIAN_POINT ( 'NONE',  ( -27.79999999999999005, 18.00000000000001421, 1.600000000000000089 ) ) ;
#1017 = ORIENTED_EDGE ( 'NONE', *, *, #379, .T. ) ;
#1018 = AXIS2_PLACEMENT_3D ( 'NONE', #191, #587, #357 ) ;
#1019 = CARTESIAN_POINT ( 'NONE',  ( -28.79999999999999361, 18.00000000000001421, 1.600000000000000089 ) ) ;
#1020 =( LENGTH_UNIT ( ) NAMED_UNIT ( * ) SI_UNIT ( .MILLI., .METRE. ) );
#1021 = DIRECTION ( 'NONE',  ( 1.000000000000000000, 0.000000000000000000, 0.000000000000000000 ) ) ;
#1022 = EDGE_CURVE ( 'NONE', #805, #981, #720, .T. ) ;
#1023 = VERTEX_POINT ( 'NONE', #977 ) ;
#1024 = EDGE_CURVE ( 'NONE', #72, #161, #305, .T. ) ;
#1025 = CARTESIAN_POINT ( 'NONE',  ( 0.000000000000000000, 6.099999999999999645, -0.5000000000000000000 ) ) ;
#1026 = CARTESIAN_POINT ( 'NONE',  ( 22.79999999999999361, 1.600000000000000089, -7.000000000000004441 ) ) ;
#1027 = EDGE_CURVE ( 'NONE', #282, #155, #475, .T. ) ;
#1028 = ORIENTED_EDGE ( 'NONE', *, *, #687, .T. ) ;
#1029 = ORIENTED_EDGE ( 'NONE', *, *, #262, .F. ) ;
#1030 = DIRECTION ( 'NONE',  ( -1.000000000000000000, -0.000000000000000000, -0.000000000000000000 ) ) ;
#1031 = CARTESIAN_POINT ( 'NONE',  ( -8.750000000000000000, 0.000000000000000000, 0.000000000000000000 ) ) ;
#1032 = DIRECTION ( 'NONE',  ( 1.000000000000000000, 0.000000000000000000, 0.000000000000000000 ) ) ;
#1033 = ORIENTED_EDGE ( 'NONE', *, *, #296, .T. ) ;
#1034 = ORIENTED_EDGE ( 'NONE', *, *, #868, .T. ) ;
#1035 = CARTESIAN_POINT ( 'NONE',  ( 26.05000000000000426, 10.00000000000001599, 1.600000000000000089 ) ) ;
#1036 = CARTESIAN_POINT ( 'NONE',  ( -22.80000000000000782, 5.599999999999999645, -7.000000000000000000 ) ) ;
#1037 = EDGE_CURVE ( 'NONE', #457, #170, #58, .T. ) ;
#1038 = ORIENTED_EDGE ( 'NONE', *, *, #527, .F. ) ;
#1039 = VECTOR ( 'NONE', #583, 1000.000000000000000 ) ;
#1040 = CARTESIAN_POINT ( 'NONE',  ( -8.750000000000000000, 1.600000000000000089, -7.000000000000004441 ) ) ;
#1041 = CARTESIAN_POINT ( 'NONE',  ( 22.80000000000000071, 5.599999999999999645, -0.5000000000000000000 ) ) ;
#1042 = ADVANCED_FACE ( 'NONE', ( #427 ), #9, .F. ) ;
#1043 = ORIENTED_EDGE ( 'NONE', *, *, #1022, .T. ) ;
#1044 = ORIENTED_EDGE ( 'NONE', *, *, #932, .F. ) ;
#1045 = CARTESIAN_POINT ( 'NONE',  ( -23.30000000000000782, 1.600000000000000089, 0.000000000000000000 ) ) ;
#1046 = CARTESIAN_POINT ( 'NONE',  ( -22.80000000000000782, 5.599999999999999645, -0.5000000000000000000 ) ) ;
#1047 = CARTESIAN_POINT ( 'NONE',  ( 8.750000000000000000, 0.000000000000000000, 0.000000000000000000 ) ) ;
#1048 = ADVANCED_FACE ( 'NONE', ( #672 ), #738, .F. ) ;
#1049 = VECTOR ( 'NONE', #501, 1000.000000000000000 ) ;
#1050 = ORIENTED_EDGE ( 'NONE', *, *, #737, .F. ) ;
#1051 = ORIENTED_EDGE ( 'NONE', *, *, #365, .F. ) ;
#1052 = PLANE ( 'NONE',  #754 ) ;
#1053 = CARTESIAN_POINT ( 'NONE',  ( 18.79999999999999716, 5.599999999999999645, -4.200000000000000178 ) ) ;
#1054 = VERTEX_POINT ( 'NONE', #266 ) ;
#1055 = EDGE_CURVE ( 'NONE', #875, #858, #586, .T. ) ;
#1056 = ORIENTED_EDGE ( 'NONE', *, *, #157, .T. ) ;
#1057 = ADVANCED_FACE ( 'NONE', ( #174 ), #902, .F. ) ;
#1058 = LINE ( 'NONE', #898, #650 ) ;
#1059 = CARTESIAN_POINT ( 'NONE',  ( -14.80000000000000782, 5.599999999999999645, -0.5000000000000000000 ) ) ;
#1060 = ORIENTED_EDGE ( 'NONE', *, *, #17, .F. ) ;
#1061 = EDGE_CURVE ( 'NONE', #240, #621, #653, .T. ) ;
#1062 = VECTOR ( 'NONE', #711, 1000.000000000000000 ) ;
#1063 = ORIENTED_EDGE ( 'NONE', *, *, #421, .F. ) ;
#1064 = SHAPE_DEFINITION_REPRESENTATION ( #895, #304 ) ;
#1065 = DIRECTION ( 'NONE',  ( 0.000000000000000000, 0.000000000000000000, 1.000000000000000000 ) ) ;
#1066 = ORIENTED_EDGE ( 'NONE', *, *, #454, .F. ) ;
#1067 = ORIENTED_EDGE ( 'NONE', *, *, #634, .F. ) ;
#1068 = DIRECTION ( 'NONE',  ( 0.000000000000000000, 1.000000000000000000, -0.000000000000000000 ) ) ;
#1069 = CARTESIAN_POINT ( 'NONE',  ( 14.29999999999999361, 6.099999999999999645, 0.000000000000000000 ) ) ;
#1070 = EDGE_CURVE ( 'NONE', #151, #821, #490, .T. ) ;
#1071 = DIRECTION ( 'NONE',  ( 1.000000000000000000, 0.000000000000000000, 0.000000000000000000 ) ) ;
#1072 = ORIENTED_EDGE ( 'NONE', *, *, #527, .T. ) ;
#1073 = DIRECTION ( 'NONE',  ( -0.000000000000000000, -0.000000000000000000, 1.000000000000000000 ) ) ;
ENDSEC;
END-ISO-10303-21;
